G75*
%MOIN*%
%OFA0B0*%
%FSLAX25Y25*%
%IPPOS*%
%LPD*%
%AMOC8*
5,1,8,0,0,1.08239X$1,22.5*
%
%ADD10C,0.00600*%
%ADD11R,0.00030X0.08190*%
%ADD12R,0.00030X0.08430*%
%ADD13R,0.00030X0.08610*%
%ADD14R,0.00030X0.08730*%
%ADD15R,0.00030X0.08790*%
%ADD16R,0.00030X0.08910*%
%ADD17R,0.00030X0.08970*%
%ADD18R,0.00030X0.09030*%
%ADD19R,0.00030X0.09090*%
%ADD20R,0.00030X0.09150*%
%ADD21R,0.00030X0.09210*%
%ADD22R,0.00030X0.09270*%
%ADD23R,0.00030X0.01200*%
%ADD24R,0.00030X0.04500*%
%ADD25R,0.00030X0.08850*%
%ADD26R,0.00030X0.08670*%
%ADD27R,0.00030X0.08370*%
%ADD28R,0.00030X0.08130*%
%ADD29R,0.00030X0.05460*%
%ADD30R,0.00030X0.05400*%
%ADD31R,0.00030X0.05340*%
%ADD32R,0.00030X0.05280*%
%ADD33R,0.00030X0.05220*%
%ADD34R,0.00030X0.05160*%
%ADD35R,0.00030X0.05100*%
%ADD36R,0.00030X0.04980*%
%ADD37R,0.00030X0.04920*%
%ADD38R,0.00030X0.04800*%
%ADD39R,0.00030X0.04650*%
%ADD40R,0.00030X0.06900*%
%ADD41R,0.00030X0.06840*%
%ADD42R,0.00030X0.06780*%
%ADD43R,0.00030X0.06720*%
%ADD44R,0.00030X0.06660*%
%ADD45R,0.00030X0.06600*%
%ADD46R,0.00030X0.06540*%
%ADD47R,0.00030X0.06480*%
%ADD48R,0.00030X0.06420*%
%ADD49R,0.00030X0.06360*%
%ADD50R,0.00030X0.06300*%
%ADD51R,0.00030X0.06240*%
%ADD52R,0.00030X0.06180*%
%ADD53R,0.00030X0.06120*%
%ADD54R,0.00030X0.06060*%
%ADD55R,0.00030X0.06000*%
%ADD56R,0.00030X0.05940*%
%ADD57R,0.00030X0.05880*%
%ADD58R,0.00030X0.05820*%
%ADD59R,0.00030X0.05760*%
%ADD60R,0.00030X0.05730*%
%ADD61R,0.00030X0.05670*%
%ADD62R,0.00030X0.05610*%
%ADD63R,0.00030X0.05550*%
%ADD64R,0.00030X0.05490*%
%ADD65R,0.00030X0.05430*%
%ADD66R,0.00030X0.05370*%
%ADD67R,0.00030X0.05310*%
%ADD68R,0.00030X0.05250*%
%ADD69R,0.00030X0.05190*%
%ADD70R,0.00030X0.05040*%
%ADD71R,0.00030X0.04920*%
%ADD72R,0.00030X0.04860*%
%ADD73R,0.00030X0.04740*%
%ADD74R,0.00030X0.04680*%
%ADD75R,0.00030X0.04620*%
%ADD76R,0.00030X0.04590*%
%ADD77R,0.00030X0.04530*%
%ADD78R,0.00030X0.04470*%
%ADD79R,0.00030X0.04410*%
%ADD80R,0.00030X0.04350*%
%ADD81R,0.00030X0.04290*%
%ADD82R,0.00030X0.04230*%
%ADD83R,0.00030X0.04170*%
%ADD84R,0.00030X0.04110*%
%ADD85R,0.00030X0.04050*%
%ADD86R,0.00030X0.03990*%
%ADD87R,0.00030X0.03930*%
%ADD88R,0.00030X0.03870*%
%ADD89R,0.00030X0.03810*%
%ADD90R,0.00030X0.03750*%
%ADD91R,0.00030X0.03690*%
%ADD92R,0.00030X0.03630*%
%ADD93R,0.00030X0.03570*%
%ADD94R,0.00030X0.03510*%
%ADD95R,0.00030X0.03450*%
%ADD96R,0.00030X0.03390*%
%ADD97R,0.00030X0.03330*%
%ADD98R,0.00030X0.03270*%
%ADD99R,0.00030X0.03210*%
%ADD100R,0.00030X0.03150*%
%ADD101R,0.00030X0.03090*%
%ADD102R,0.00030X0.03030*%
%ADD103R,0.00030X0.02970*%
%ADD104R,0.00030X0.02910*%
%ADD105R,0.00030X0.02850*%
%ADD106R,0.00030X0.02790*%
%ADD107R,0.00030X0.02730*%
%ADD108R,0.00030X0.02670*%
%ADD109R,0.00030X0.02610*%
%ADD110R,0.00030X0.02550*%
%ADD111R,0.00030X0.02490*%
%ADD112R,0.00030X0.02430*%
%ADD113R,0.00030X0.02370*%
%ADD114R,0.00030X0.02310*%
%ADD115R,0.00030X0.02280*%
%ADD116R,0.00030X0.02220*%
%ADD117R,0.00030X0.02160*%
%ADD118R,0.00030X0.02100*%
%ADD119R,0.00030X0.02040*%
%ADD120R,0.00030X0.01980*%
%ADD121R,0.00030X0.01920*%
%ADD122R,0.00030X0.01860*%
%ADD123R,0.00030X0.01800*%
%ADD124R,0.00030X0.01740*%
%ADD125R,0.00030X0.01710*%
%ADD126R,0.00030X0.01650*%
%ADD127R,0.00030X0.01590*%
%ADD128R,0.00030X0.01530*%
%ADD129R,0.00030X0.01470*%
%ADD130R,0.00030X0.01410*%
%ADD131R,0.00030X0.01350*%
%ADD132R,0.00030X0.01290*%
%ADD133R,0.00030X0.01230*%
%ADD134R,0.00030X0.01170*%
%ADD135R,0.00030X0.01140*%
%ADD136R,0.00030X0.01080*%
%ADD137R,0.00030X0.01020*%
%ADD138R,0.00030X0.00960*%
%ADD139R,0.00030X0.00900*%
%ADD140R,0.00030X0.00840*%
%ADD141R,0.00030X0.00780*%
%ADD142R,0.00030X0.00720*%
%ADD143R,0.00030X0.00660*%
%ADD144R,0.00030X0.00600*%
%ADD145R,0.00030X0.00540*%
%ADD146R,0.00030X0.00480*%
%ADD147R,0.00030X0.00420*%
%ADD148R,0.00030X0.00360*%
%ADD149R,0.00030X0.00300*%
%ADD150R,0.00030X0.00240*%
%ADD151R,0.00030X0.00180*%
%ADD152R,0.00030X0.00120*%
%ADD153R,0.00030X0.00060*%
%ADD154C,0.01000*%
%ADD155R,0.03569X0.03569*%
%ADD156C,0.03569*%
%ADD157C,0.01600*%
D10*
X0007615Y0005300D02*
X0009316Y0005300D01*
X0009883Y0005867D01*
X0009883Y0007001D01*
X0009316Y0007569D01*
X0007615Y0007569D01*
X0011251Y0007569D02*
X0011818Y0007569D01*
X0012953Y0006434D01*
X0012953Y0005300D02*
X0012953Y0007569D01*
X0014367Y0007001D02*
X0014367Y0006434D01*
X0016636Y0006434D01*
X0016636Y0005867D02*
X0016636Y0007001D01*
X0016069Y0007569D01*
X0014934Y0007569D01*
X0014367Y0007001D01*
X0014934Y0005300D02*
X0016069Y0005300D01*
X0016636Y0005867D01*
X0018050Y0005300D02*
X0019752Y0005300D01*
X0020319Y0005867D01*
X0020319Y0007001D01*
X0019752Y0007569D01*
X0018050Y0007569D01*
X0018050Y0004733D01*
X0018617Y0004166D01*
X0019185Y0004166D01*
X0021733Y0005300D02*
X0023435Y0005300D01*
X0024002Y0005867D01*
X0023435Y0006434D01*
X0021733Y0006434D01*
X0021733Y0007001D02*
X0021733Y0005300D01*
X0021733Y0007001D02*
X0022301Y0007569D01*
X0023435Y0007569D01*
X0025323Y0007569D02*
X0026457Y0007569D01*
X0025890Y0008136D02*
X0025890Y0005867D01*
X0025323Y0005300D01*
X0027779Y0005300D02*
X0028913Y0005300D01*
X0028346Y0005300D02*
X0028346Y0008703D01*
X0028913Y0008703D01*
X0030327Y0007001D02*
X0030895Y0007569D01*
X0032029Y0007569D01*
X0032596Y0007001D01*
X0032596Y0005867D01*
X0032029Y0005300D01*
X0030895Y0005300D01*
X0030327Y0005867D01*
X0030327Y0007001D01*
X0034011Y0007569D02*
X0035145Y0005300D01*
X0036279Y0007569D01*
X0037647Y0007569D02*
X0038214Y0007569D01*
X0039348Y0006434D01*
X0039348Y0005300D02*
X0039348Y0007569D01*
X0040763Y0007001D02*
X0040763Y0006434D01*
X0043032Y0006434D01*
X0043032Y0005867D02*
X0043032Y0007001D01*
X0042464Y0007569D01*
X0041330Y0007569D01*
X0040763Y0007001D01*
X0042464Y0005300D02*
X0043032Y0005867D01*
X0042464Y0005300D02*
X0041330Y0005300D01*
X0044446Y0007569D02*
X0045580Y0005300D01*
X0046715Y0007569D01*
X0048129Y0007001D02*
X0048696Y0007569D01*
X0049831Y0007569D01*
X0050398Y0007001D01*
X0050398Y0005867D01*
X0049831Y0005300D01*
X0048696Y0005300D01*
X0048129Y0005867D01*
X0048129Y0007001D01*
X0051812Y0008703D02*
X0054081Y0005300D01*
X0055496Y0005300D02*
X0055496Y0007001D01*
X0056063Y0007569D01*
X0056630Y0007001D01*
X0056630Y0005300D01*
X0057764Y0005300D02*
X0057764Y0007569D01*
X0057197Y0007569D01*
X0056630Y0007001D01*
X0059179Y0007001D02*
X0059179Y0005867D01*
X0059746Y0005300D01*
X0060880Y0005300D01*
X0061447Y0005867D01*
X0061447Y0007001D01*
X0060880Y0007569D01*
X0059746Y0007569D01*
X0059179Y0007001D01*
X0062862Y0007569D02*
X0064563Y0007569D01*
X0065130Y0007001D01*
X0065130Y0005867D01*
X0064563Y0005300D01*
X0062862Y0005300D01*
X0066405Y0005300D02*
X0066972Y0005300D01*
X0066972Y0005867D01*
X0066405Y0005867D01*
X0066405Y0005300D01*
X0068340Y0005300D02*
X0070041Y0006434D01*
X0068340Y0007569D01*
X0070041Y0008703D02*
X0070041Y0005300D01*
X0071456Y0005867D02*
X0071456Y0007001D01*
X0072023Y0007569D01*
X0073157Y0007569D01*
X0073724Y0007001D01*
X0073724Y0005867D01*
X0073157Y0005300D01*
X0072023Y0005300D01*
X0071456Y0005867D01*
X0075139Y0005867D02*
X0075139Y0007001D01*
X0075706Y0007569D01*
X0076840Y0007569D01*
X0077408Y0007001D01*
X0077408Y0005867D01*
X0076840Y0005300D01*
X0075706Y0005300D01*
X0075139Y0005867D01*
X0078822Y0005867D02*
X0078822Y0007001D01*
X0079389Y0007569D01*
X0081091Y0007569D01*
X0081091Y0008703D02*
X0081091Y0005300D01*
X0079389Y0005300D01*
X0078822Y0005867D01*
X0082505Y0006434D02*
X0084774Y0006434D01*
X0084774Y0005867D02*
X0084774Y0007001D01*
X0084207Y0007569D01*
X0083072Y0007569D01*
X0082505Y0007001D01*
X0082505Y0006434D01*
X0083072Y0005300D02*
X0084207Y0005300D01*
X0084774Y0005867D01*
X0086188Y0005300D02*
X0087890Y0005300D01*
X0088457Y0005867D01*
X0088457Y0007001D01*
X0087890Y0007569D01*
X0086188Y0007569D01*
X0089872Y0007001D02*
X0089872Y0005300D01*
X0091573Y0005300D01*
X0092140Y0005867D01*
X0091573Y0006434D01*
X0089872Y0006434D01*
X0089872Y0007001D02*
X0090439Y0007569D01*
X0091573Y0007569D01*
X0093461Y0007001D02*
X0094596Y0007001D01*
X0094028Y0008136D02*
X0093461Y0008703D01*
X0094028Y0008136D02*
X0094028Y0005300D01*
X0066200Y0019069D02*
X0065066Y0019069D01*
X0065633Y0019636D02*
X0065633Y0017367D01*
X0065066Y0016800D01*
X0063745Y0016800D02*
X0063745Y0020203D01*
X0063745Y0018501D02*
X0061476Y0018501D01*
X0060061Y0018501D02*
X0059494Y0019069D01*
X0058360Y0019069D01*
X0057793Y0018501D01*
X0057793Y0017934D01*
X0060061Y0017934D01*
X0060061Y0017367D02*
X0059494Y0016800D01*
X0058360Y0016800D01*
X0060061Y0017367D02*
X0060061Y0018501D01*
X0061476Y0016800D02*
X0061476Y0020203D01*
X0056378Y0018501D02*
X0056378Y0017367D01*
X0055811Y0016800D01*
X0054677Y0016800D01*
X0054110Y0017367D01*
X0054110Y0018501D01*
X0054677Y0019069D01*
X0055811Y0019069D01*
X0056378Y0018501D01*
X0049012Y0019636D02*
X0048445Y0020203D01*
X0047311Y0020203D01*
X0046743Y0019636D01*
X0046743Y0019069D01*
X0049012Y0016800D01*
X0046743Y0016800D01*
X0045329Y0017367D02*
X0043060Y0019636D01*
X0043060Y0017367D01*
X0043627Y0016800D01*
X0044762Y0016800D01*
X0045329Y0017367D01*
X0045329Y0019636D01*
X0044762Y0020203D01*
X0043627Y0020203D01*
X0043060Y0019636D01*
X0041646Y0019069D02*
X0040511Y0020203D01*
X0040511Y0016800D01*
X0039377Y0016800D02*
X0041646Y0016800D01*
X0037963Y0016800D02*
X0037963Y0017367D01*
X0035694Y0019636D01*
X0035694Y0020203D01*
X0037963Y0020203D01*
D11*
X0090130Y0066270D03*
D12*
X0090100Y0066270D03*
D13*
X0090070Y0066270D03*
X0072130Y0066270D03*
D14*
X0090040Y0066270D03*
D15*
X0090010Y0066270D03*
X0072190Y0066270D03*
D16*
X0072250Y0066270D03*
X0089980Y0066270D03*
D17*
X0089950Y0066270D03*
X0089920Y0066270D03*
X0072280Y0066270D03*
D18*
X0072310Y0066270D03*
X0072340Y0066270D03*
X0089890Y0066270D03*
D19*
X0089860Y0066270D03*
X0089830Y0066270D03*
X0072370Y0066270D03*
D20*
X0072400Y0066270D03*
X0072430Y0066270D03*
X0072460Y0066270D03*
X0089740Y0066270D03*
X0089770Y0066270D03*
X0089800Y0066270D03*
D21*
X0089710Y0066270D03*
X0089680Y0066270D03*
X0089650Y0066270D03*
X0089620Y0066270D03*
X0072580Y0066270D03*
X0072550Y0066270D03*
X0072520Y0066270D03*
X0072490Y0066270D03*
D22*
X0072610Y0066270D03*
X0072640Y0066270D03*
X0072670Y0066270D03*
X0072700Y0066270D03*
X0072730Y0066270D03*
X0072760Y0066270D03*
X0072790Y0066270D03*
X0072820Y0066270D03*
X0072850Y0066270D03*
X0072880Y0066270D03*
X0072910Y0066270D03*
X0072940Y0066270D03*
X0072970Y0066270D03*
X0073000Y0066270D03*
X0073030Y0066270D03*
X0073060Y0066270D03*
X0073090Y0066270D03*
X0073120Y0066270D03*
X0073150Y0066270D03*
X0073180Y0066270D03*
X0073210Y0066270D03*
X0073240Y0066270D03*
X0073270Y0066270D03*
X0088960Y0066270D03*
X0088990Y0066270D03*
X0089020Y0066270D03*
X0089050Y0066270D03*
X0089080Y0066270D03*
X0089110Y0066270D03*
X0089140Y0066270D03*
X0089170Y0066270D03*
X0089200Y0066270D03*
X0089230Y0066270D03*
X0089260Y0066270D03*
X0089290Y0066270D03*
X0089320Y0066270D03*
X0089350Y0066270D03*
X0089380Y0066270D03*
X0089410Y0066270D03*
X0089440Y0066270D03*
X0089470Y0066270D03*
X0089500Y0066270D03*
X0089530Y0066270D03*
X0089560Y0066270D03*
X0089590Y0066270D03*
D23*
X0088930Y0070305D03*
X0088900Y0070305D03*
X0088870Y0070305D03*
X0088840Y0070305D03*
X0088810Y0070305D03*
X0088780Y0070305D03*
X0088750Y0070305D03*
X0088720Y0070305D03*
X0088690Y0070305D03*
X0088660Y0070305D03*
X0088630Y0070305D03*
X0088600Y0070305D03*
X0088570Y0070305D03*
X0088540Y0070305D03*
X0088510Y0070305D03*
X0088480Y0070305D03*
X0088450Y0070305D03*
X0088420Y0070305D03*
X0088390Y0070305D03*
X0088360Y0070305D03*
X0088330Y0070305D03*
X0088300Y0070305D03*
X0088270Y0070305D03*
X0088240Y0070305D03*
X0088210Y0070305D03*
X0088180Y0070305D03*
X0088150Y0070305D03*
X0088120Y0070305D03*
X0088090Y0070305D03*
X0088060Y0070305D03*
X0088030Y0070305D03*
X0088000Y0070305D03*
X0087970Y0070305D03*
X0087940Y0070305D03*
X0087910Y0070305D03*
X0087880Y0070305D03*
X0087850Y0070305D03*
X0087820Y0070305D03*
X0087790Y0070305D03*
X0087760Y0070305D03*
X0087730Y0070305D03*
X0087700Y0070305D03*
X0087670Y0070305D03*
X0087640Y0070305D03*
X0087610Y0070305D03*
X0087580Y0070305D03*
X0087550Y0070305D03*
X0087520Y0070305D03*
X0087490Y0070305D03*
X0087460Y0070305D03*
X0087430Y0070305D03*
X0087400Y0070305D03*
X0087370Y0070305D03*
X0087340Y0070305D03*
X0087310Y0070305D03*
X0087280Y0070305D03*
X0087250Y0070305D03*
X0087220Y0070305D03*
X0087190Y0070305D03*
X0087160Y0070305D03*
X0087130Y0070305D03*
X0087100Y0070305D03*
X0087070Y0070305D03*
X0087040Y0070305D03*
X0087010Y0070305D03*
X0086980Y0070305D03*
X0086950Y0070305D03*
X0086920Y0070305D03*
X0086890Y0070305D03*
X0086860Y0070305D03*
X0086830Y0070305D03*
X0086800Y0070305D03*
X0086770Y0070305D03*
X0086740Y0070305D03*
X0086710Y0070305D03*
X0086680Y0070305D03*
X0086650Y0070305D03*
X0086620Y0070305D03*
X0086590Y0070305D03*
X0086560Y0070305D03*
X0086530Y0070305D03*
X0086500Y0070305D03*
X0086470Y0070305D03*
X0086440Y0070305D03*
X0086410Y0070305D03*
X0086380Y0070305D03*
X0086350Y0070305D03*
X0086320Y0070305D03*
X0086290Y0070305D03*
X0086260Y0070305D03*
X0086230Y0070305D03*
X0086200Y0070305D03*
X0086170Y0070305D03*
X0086140Y0070305D03*
X0086110Y0070305D03*
X0086080Y0070305D03*
X0086050Y0070305D03*
X0086020Y0070305D03*
X0085990Y0070305D03*
X0085960Y0070305D03*
X0085930Y0070305D03*
X0085900Y0070305D03*
X0085870Y0070305D03*
X0085840Y0070305D03*
X0085810Y0070305D03*
X0085780Y0070305D03*
X0085750Y0070305D03*
X0085720Y0070305D03*
X0085690Y0070305D03*
X0085660Y0070305D03*
X0085630Y0070305D03*
X0085600Y0070305D03*
X0085570Y0070305D03*
X0085540Y0070305D03*
X0085510Y0070305D03*
X0085480Y0070305D03*
X0085450Y0070305D03*
X0085420Y0070305D03*
X0085390Y0070305D03*
X0085360Y0070305D03*
X0085330Y0070305D03*
X0085300Y0070305D03*
X0085270Y0070305D03*
X0085240Y0070305D03*
X0085210Y0070305D03*
X0085180Y0070305D03*
X0085150Y0070305D03*
X0085120Y0070305D03*
X0085090Y0070305D03*
X0085060Y0070305D03*
X0085030Y0070305D03*
X0085000Y0070305D03*
X0084970Y0070305D03*
X0084940Y0070305D03*
X0084910Y0070305D03*
X0084880Y0070305D03*
X0084850Y0070305D03*
X0084820Y0070305D03*
X0084790Y0070305D03*
X0084760Y0070305D03*
X0084730Y0070305D03*
X0084700Y0070305D03*
X0084670Y0070305D03*
X0084640Y0070305D03*
X0084610Y0070305D03*
X0084580Y0070305D03*
X0084550Y0070305D03*
X0084520Y0070305D03*
X0084490Y0070305D03*
X0084460Y0070305D03*
X0084430Y0070305D03*
X0084400Y0070305D03*
X0084370Y0070305D03*
X0084340Y0070305D03*
X0084310Y0070305D03*
X0084280Y0070305D03*
X0084250Y0070305D03*
X0084220Y0070305D03*
X0084190Y0070305D03*
X0084160Y0070305D03*
X0084130Y0070305D03*
X0084100Y0070305D03*
X0084070Y0070305D03*
X0084040Y0070305D03*
X0084010Y0070305D03*
X0083980Y0070305D03*
X0083950Y0070305D03*
X0083920Y0070305D03*
X0083890Y0070305D03*
X0083860Y0070305D03*
X0083830Y0070305D03*
X0083800Y0070305D03*
X0083770Y0070305D03*
X0083740Y0070305D03*
X0083710Y0070305D03*
X0083680Y0070305D03*
X0083650Y0070305D03*
X0083620Y0070305D03*
X0083590Y0070305D03*
X0083560Y0070305D03*
X0083530Y0070305D03*
X0083500Y0070305D03*
X0083470Y0070305D03*
X0083440Y0070305D03*
X0083410Y0070305D03*
X0083380Y0070305D03*
X0083350Y0070305D03*
X0083320Y0070305D03*
X0083290Y0070305D03*
X0083260Y0070305D03*
X0083230Y0070305D03*
X0083200Y0070305D03*
X0083170Y0070305D03*
X0083140Y0070305D03*
X0083110Y0070305D03*
X0083080Y0070305D03*
X0083050Y0070305D03*
X0083020Y0070305D03*
X0082990Y0070305D03*
X0082960Y0070305D03*
X0082930Y0070305D03*
X0082900Y0070305D03*
X0082870Y0070305D03*
X0082840Y0070305D03*
X0082810Y0070305D03*
X0082780Y0070305D03*
X0082750Y0070305D03*
X0082720Y0070305D03*
X0082690Y0070305D03*
X0082660Y0070305D03*
X0082630Y0070305D03*
X0082600Y0070305D03*
X0082570Y0070305D03*
X0082540Y0070305D03*
X0082510Y0070305D03*
X0082480Y0070305D03*
X0082450Y0070305D03*
X0082420Y0070305D03*
X0082390Y0070305D03*
X0082360Y0070305D03*
X0082330Y0070305D03*
X0082300Y0070305D03*
X0082270Y0070305D03*
X0082240Y0070305D03*
X0082210Y0070305D03*
X0082180Y0070305D03*
X0082150Y0070305D03*
X0082120Y0070305D03*
X0082090Y0070305D03*
X0082060Y0070305D03*
X0082030Y0070305D03*
X0082000Y0070305D03*
X0081970Y0070305D03*
X0081940Y0070305D03*
X0081910Y0070305D03*
X0081880Y0070305D03*
X0081850Y0070305D03*
X0081820Y0070305D03*
X0081790Y0070305D03*
X0081760Y0070305D03*
X0081730Y0070305D03*
X0081700Y0070305D03*
X0081670Y0070305D03*
X0081640Y0070305D03*
X0081610Y0070305D03*
X0081580Y0070305D03*
X0081550Y0070305D03*
X0081520Y0070305D03*
X0081490Y0070305D03*
X0081460Y0070305D03*
X0081430Y0070305D03*
X0081400Y0070305D03*
X0081370Y0070305D03*
X0081340Y0070305D03*
X0081310Y0070305D03*
X0081280Y0070305D03*
X0081250Y0070305D03*
X0081220Y0070305D03*
X0081190Y0070305D03*
X0081160Y0070305D03*
X0081130Y0070305D03*
X0081100Y0070305D03*
X0081070Y0070305D03*
X0081040Y0070305D03*
X0081010Y0070305D03*
X0080980Y0070305D03*
X0080950Y0070305D03*
X0080920Y0070305D03*
X0080890Y0070305D03*
X0080860Y0070305D03*
X0080830Y0070305D03*
X0080800Y0070305D03*
X0080770Y0070305D03*
X0080740Y0070305D03*
X0080710Y0070305D03*
X0080680Y0070305D03*
X0080650Y0070305D03*
X0080620Y0070305D03*
X0080590Y0070305D03*
X0080560Y0070305D03*
X0080530Y0070305D03*
X0080500Y0070305D03*
X0080470Y0070305D03*
X0080440Y0070305D03*
X0080410Y0070305D03*
X0080380Y0070305D03*
X0080350Y0070305D03*
X0080320Y0070305D03*
X0080290Y0070305D03*
X0080260Y0070305D03*
X0080230Y0070305D03*
X0080200Y0070305D03*
X0080170Y0070305D03*
X0080140Y0070305D03*
X0080110Y0070305D03*
X0080080Y0070305D03*
X0080050Y0070305D03*
X0080020Y0070305D03*
X0079990Y0070305D03*
X0079960Y0070305D03*
X0079930Y0070305D03*
X0079900Y0070305D03*
X0079870Y0070305D03*
X0079840Y0070305D03*
X0079810Y0070305D03*
X0079780Y0070305D03*
X0079750Y0070305D03*
X0079720Y0070305D03*
X0079690Y0070305D03*
X0079660Y0070305D03*
X0079630Y0070305D03*
X0079600Y0070305D03*
X0079570Y0070305D03*
X0079540Y0070305D03*
X0079510Y0070305D03*
X0079480Y0070305D03*
X0079450Y0070305D03*
X0079420Y0070305D03*
X0079390Y0070305D03*
X0079360Y0070305D03*
X0079330Y0070305D03*
X0079300Y0070305D03*
X0079270Y0070305D03*
X0079240Y0070305D03*
X0079210Y0070305D03*
X0079180Y0070305D03*
X0079150Y0070305D03*
X0079120Y0070305D03*
X0079090Y0070305D03*
X0079060Y0070305D03*
X0079030Y0070305D03*
X0079000Y0070305D03*
X0078970Y0070305D03*
X0078940Y0070305D03*
X0078910Y0070305D03*
X0078880Y0070305D03*
X0078850Y0070305D03*
X0078820Y0070305D03*
X0078790Y0070305D03*
X0078760Y0070305D03*
X0078730Y0070305D03*
X0078700Y0070305D03*
X0078670Y0070305D03*
X0078640Y0070305D03*
X0078610Y0070305D03*
X0078580Y0070305D03*
X0078550Y0070305D03*
X0078520Y0070305D03*
X0078490Y0070305D03*
X0078460Y0070305D03*
X0078430Y0070305D03*
X0078400Y0070305D03*
X0078370Y0070305D03*
X0078340Y0070305D03*
X0078310Y0070305D03*
X0078280Y0070305D03*
X0078250Y0070305D03*
X0078220Y0070305D03*
X0078190Y0070305D03*
X0078160Y0070305D03*
X0078130Y0070305D03*
X0078100Y0070305D03*
X0078070Y0070305D03*
X0078040Y0070305D03*
X0078010Y0070305D03*
X0077980Y0070305D03*
X0077950Y0070305D03*
X0077920Y0070305D03*
X0077890Y0070305D03*
X0077860Y0070305D03*
X0077830Y0070305D03*
X0077800Y0070305D03*
X0077770Y0070305D03*
X0077740Y0070305D03*
X0077710Y0070305D03*
X0077680Y0070305D03*
X0077650Y0070305D03*
X0077620Y0070305D03*
X0077590Y0070305D03*
X0077560Y0070305D03*
X0077530Y0070305D03*
X0077500Y0070305D03*
X0077470Y0070305D03*
X0077440Y0070305D03*
X0077410Y0070305D03*
X0077380Y0070305D03*
X0077350Y0070305D03*
X0077320Y0070305D03*
X0077290Y0070305D03*
X0077260Y0070305D03*
X0077230Y0070305D03*
X0077200Y0070305D03*
X0077170Y0070305D03*
X0077140Y0070305D03*
X0077110Y0070305D03*
X0077080Y0070305D03*
X0077050Y0070305D03*
X0077020Y0070305D03*
X0076990Y0070305D03*
X0076960Y0070305D03*
X0076930Y0070305D03*
X0076900Y0070305D03*
X0076870Y0070305D03*
X0076840Y0070305D03*
X0076810Y0070305D03*
X0076780Y0070305D03*
X0076750Y0070305D03*
X0076720Y0070305D03*
X0076690Y0070305D03*
X0076660Y0070305D03*
X0076630Y0070305D03*
X0076600Y0070305D03*
X0076570Y0070305D03*
X0076540Y0070305D03*
X0076510Y0070305D03*
X0076480Y0070305D03*
X0076450Y0070305D03*
X0076420Y0070305D03*
X0076390Y0070305D03*
X0076360Y0070305D03*
X0076330Y0070305D03*
X0076300Y0070305D03*
X0076270Y0070305D03*
X0076240Y0070305D03*
X0076210Y0070305D03*
X0076180Y0070305D03*
X0076150Y0070305D03*
X0076120Y0070305D03*
X0076090Y0070305D03*
X0076060Y0070305D03*
X0076030Y0070305D03*
X0076000Y0070305D03*
X0075970Y0070305D03*
X0075940Y0070305D03*
X0075910Y0070305D03*
X0075880Y0070305D03*
X0075850Y0070305D03*
X0075820Y0070305D03*
X0075790Y0070305D03*
X0075760Y0070305D03*
X0075730Y0070305D03*
X0075700Y0070305D03*
X0075670Y0070305D03*
X0075640Y0070305D03*
X0075610Y0070305D03*
X0075580Y0070305D03*
X0075550Y0070305D03*
X0075520Y0070305D03*
X0075490Y0070305D03*
X0075460Y0070305D03*
X0075430Y0070305D03*
X0075400Y0070305D03*
X0075370Y0070305D03*
X0075340Y0070305D03*
X0075310Y0070305D03*
X0075280Y0070305D03*
X0075250Y0070305D03*
X0075220Y0070305D03*
X0075190Y0070305D03*
X0075160Y0070305D03*
X0075130Y0070305D03*
X0075100Y0070305D03*
X0075070Y0070305D03*
X0075040Y0070305D03*
X0075010Y0070305D03*
X0074980Y0070305D03*
X0074950Y0070305D03*
X0074920Y0070305D03*
X0074890Y0070305D03*
X0074860Y0070305D03*
X0074830Y0070305D03*
X0074800Y0070305D03*
X0074770Y0070305D03*
X0074740Y0070305D03*
X0074710Y0070305D03*
X0074680Y0070305D03*
X0074650Y0070305D03*
X0074620Y0070305D03*
X0074590Y0070305D03*
X0074560Y0070305D03*
X0074530Y0070305D03*
X0074500Y0070305D03*
X0074470Y0070305D03*
X0074440Y0070305D03*
X0074410Y0070305D03*
X0074380Y0070305D03*
X0074350Y0070305D03*
X0074320Y0070305D03*
X0074290Y0070305D03*
X0074260Y0070305D03*
X0074230Y0070305D03*
X0074200Y0070305D03*
X0074170Y0070305D03*
X0074140Y0070305D03*
X0074110Y0070305D03*
X0074080Y0070305D03*
X0074050Y0070305D03*
X0074020Y0070305D03*
X0073990Y0070305D03*
X0073960Y0070305D03*
X0073930Y0070305D03*
X0073900Y0070305D03*
X0073870Y0070305D03*
X0073840Y0070305D03*
X0073810Y0070305D03*
X0073780Y0070305D03*
X0073750Y0070305D03*
X0073720Y0070305D03*
X0073690Y0070305D03*
X0073660Y0070305D03*
X0073630Y0070305D03*
X0073600Y0070305D03*
X0073570Y0070305D03*
X0073540Y0070305D03*
X0073510Y0070305D03*
X0073480Y0070305D03*
X0073450Y0070305D03*
X0073420Y0070305D03*
X0073390Y0070305D03*
X0073360Y0070305D03*
X0073330Y0070305D03*
X0073300Y0070305D03*
X0073300Y0062235D03*
X0073330Y0062235D03*
X0073360Y0062235D03*
X0073390Y0062235D03*
X0073420Y0062235D03*
X0073450Y0062235D03*
X0073480Y0062235D03*
X0073510Y0062235D03*
X0073540Y0062235D03*
X0073570Y0062235D03*
X0073600Y0062235D03*
X0073630Y0062235D03*
X0073660Y0062235D03*
X0073690Y0062235D03*
X0073720Y0062235D03*
X0073750Y0062235D03*
X0073780Y0062235D03*
X0073810Y0062235D03*
X0073840Y0062235D03*
X0073870Y0062235D03*
X0073900Y0062235D03*
X0073930Y0062235D03*
X0073960Y0062235D03*
X0073990Y0062235D03*
X0074020Y0062235D03*
X0074050Y0062235D03*
X0074080Y0062235D03*
X0074110Y0062235D03*
X0074140Y0062235D03*
X0074170Y0062235D03*
X0074200Y0062235D03*
X0074230Y0062235D03*
X0074260Y0062235D03*
X0074290Y0062235D03*
X0074320Y0062235D03*
X0074350Y0062235D03*
X0074380Y0062235D03*
X0074410Y0062235D03*
X0074440Y0062235D03*
X0074470Y0062235D03*
X0074500Y0062235D03*
X0074530Y0062235D03*
X0074560Y0062235D03*
X0074590Y0062235D03*
X0074620Y0062235D03*
X0074650Y0062235D03*
X0074680Y0062235D03*
X0074710Y0062235D03*
X0074740Y0062235D03*
X0074770Y0062235D03*
X0074800Y0062235D03*
X0074830Y0062235D03*
X0074860Y0062235D03*
X0074890Y0062235D03*
X0074920Y0062235D03*
X0074950Y0062235D03*
X0074980Y0062235D03*
X0075010Y0062235D03*
X0075040Y0062235D03*
X0075070Y0062235D03*
X0075100Y0062235D03*
X0075130Y0062235D03*
X0075160Y0062235D03*
X0075190Y0062235D03*
X0075220Y0062235D03*
X0075250Y0062235D03*
X0075280Y0062235D03*
X0075310Y0062235D03*
X0075340Y0062235D03*
X0075370Y0062235D03*
X0075400Y0062235D03*
X0075430Y0062235D03*
X0075460Y0062235D03*
X0075490Y0062235D03*
X0075520Y0062235D03*
X0075550Y0062235D03*
X0075580Y0062235D03*
X0075610Y0062235D03*
X0075640Y0062235D03*
X0075670Y0062235D03*
X0075700Y0062235D03*
X0075730Y0062235D03*
X0075760Y0062235D03*
X0075790Y0062235D03*
X0075820Y0062235D03*
X0075850Y0062235D03*
X0075880Y0062235D03*
X0075910Y0062235D03*
X0075940Y0062235D03*
X0075970Y0062235D03*
X0076000Y0062235D03*
X0076030Y0062235D03*
X0076060Y0062235D03*
X0076090Y0062235D03*
X0076120Y0062235D03*
X0076150Y0062235D03*
X0076180Y0062235D03*
X0076210Y0062235D03*
X0076240Y0062235D03*
X0076270Y0062235D03*
X0076300Y0062235D03*
X0076330Y0062235D03*
X0076360Y0062235D03*
X0076390Y0062235D03*
X0076420Y0062235D03*
X0076450Y0062235D03*
X0076480Y0062235D03*
X0076510Y0062235D03*
X0076540Y0062235D03*
X0076570Y0062235D03*
X0076600Y0062235D03*
X0076630Y0062235D03*
X0076660Y0062235D03*
X0076690Y0062235D03*
X0076720Y0062235D03*
X0076750Y0062235D03*
X0076780Y0062235D03*
X0076810Y0062235D03*
X0076840Y0062235D03*
X0076870Y0062235D03*
X0076900Y0062235D03*
X0076930Y0062235D03*
X0076960Y0062235D03*
X0076990Y0062235D03*
X0077020Y0062235D03*
X0077050Y0062235D03*
X0077080Y0062235D03*
X0077110Y0062235D03*
X0077140Y0062235D03*
X0077170Y0062235D03*
X0077200Y0062235D03*
X0077230Y0062235D03*
X0077260Y0062235D03*
X0077290Y0062235D03*
X0077320Y0062235D03*
X0077350Y0062235D03*
X0077380Y0062235D03*
X0077410Y0062235D03*
X0077440Y0062235D03*
X0077470Y0062235D03*
X0077500Y0062235D03*
X0077530Y0062235D03*
X0077560Y0062235D03*
X0077590Y0062235D03*
X0077620Y0062235D03*
X0077650Y0062235D03*
X0077680Y0062235D03*
X0077710Y0062235D03*
X0077740Y0062235D03*
X0077770Y0062235D03*
X0077800Y0062235D03*
X0077830Y0062235D03*
X0077860Y0062235D03*
X0077890Y0062235D03*
X0077920Y0062235D03*
X0077950Y0062235D03*
X0077980Y0062235D03*
X0078010Y0062235D03*
X0078040Y0062235D03*
X0078070Y0062235D03*
X0078100Y0062235D03*
X0078130Y0062235D03*
X0078160Y0062235D03*
X0078190Y0062235D03*
X0078220Y0062235D03*
X0078250Y0062235D03*
X0078280Y0062235D03*
X0078310Y0062235D03*
X0078340Y0062235D03*
X0078370Y0062235D03*
X0078400Y0062235D03*
X0078430Y0062235D03*
X0078460Y0062235D03*
X0078490Y0062235D03*
X0078520Y0062235D03*
X0078550Y0062235D03*
X0078580Y0062235D03*
X0078610Y0062235D03*
X0078640Y0062235D03*
X0078670Y0062235D03*
X0078700Y0062235D03*
X0078730Y0062235D03*
X0078760Y0062235D03*
X0078790Y0062235D03*
X0078820Y0062235D03*
X0078850Y0062235D03*
X0078880Y0062235D03*
X0078910Y0062235D03*
X0078940Y0062235D03*
X0078970Y0062235D03*
X0079000Y0062235D03*
X0079030Y0062235D03*
X0079060Y0062235D03*
X0079090Y0062235D03*
X0079120Y0062235D03*
X0079150Y0062235D03*
X0079180Y0062235D03*
X0079210Y0062235D03*
X0079240Y0062235D03*
X0079270Y0062235D03*
X0079300Y0062235D03*
X0079330Y0062235D03*
X0079360Y0062235D03*
X0079390Y0062235D03*
X0079420Y0062235D03*
X0079450Y0062235D03*
X0079480Y0062235D03*
X0079510Y0062235D03*
X0079540Y0062235D03*
X0079570Y0062235D03*
X0079600Y0062235D03*
X0079630Y0062235D03*
X0079660Y0062235D03*
X0079690Y0062235D03*
X0079720Y0062235D03*
X0079750Y0062235D03*
X0079780Y0062235D03*
X0079810Y0062235D03*
X0079840Y0062235D03*
X0079870Y0062235D03*
X0079900Y0062235D03*
X0079930Y0062235D03*
X0079960Y0062235D03*
X0079990Y0062235D03*
X0080020Y0062235D03*
X0080050Y0062235D03*
X0080080Y0062235D03*
X0080110Y0062235D03*
X0080140Y0062235D03*
X0080170Y0062235D03*
X0080200Y0062235D03*
X0080230Y0062235D03*
X0080260Y0062235D03*
X0080290Y0062235D03*
X0080320Y0062235D03*
X0080350Y0062235D03*
X0080380Y0062235D03*
X0080410Y0062235D03*
X0080440Y0062235D03*
X0080470Y0062235D03*
X0080500Y0062235D03*
X0080530Y0062235D03*
X0080560Y0062235D03*
X0080590Y0062235D03*
X0080620Y0062235D03*
X0080650Y0062235D03*
X0080680Y0062235D03*
X0080710Y0062235D03*
X0080740Y0062235D03*
X0080770Y0062235D03*
X0080800Y0062235D03*
X0080830Y0062235D03*
X0080860Y0062235D03*
X0080890Y0062235D03*
X0080920Y0062235D03*
X0080950Y0062235D03*
X0080980Y0062235D03*
X0081010Y0062235D03*
X0081040Y0062235D03*
X0081070Y0062235D03*
X0081100Y0062235D03*
X0081130Y0062235D03*
X0081160Y0062235D03*
X0081190Y0062235D03*
X0081220Y0062235D03*
X0081250Y0062235D03*
X0081280Y0062235D03*
X0081310Y0062235D03*
X0081340Y0062235D03*
X0081370Y0062235D03*
X0081400Y0062235D03*
X0081430Y0062235D03*
X0081460Y0062235D03*
X0081490Y0062235D03*
X0081520Y0062235D03*
X0081550Y0062235D03*
X0081580Y0062235D03*
X0081610Y0062235D03*
X0081640Y0062235D03*
X0081670Y0062235D03*
X0081700Y0062235D03*
X0081730Y0062235D03*
X0081760Y0062235D03*
X0081790Y0062235D03*
X0081820Y0062235D03*
X0081850Y0062235D03*
X0081880Y0062235D03*
X0081910Y0062235D03*
X0081940Y0062235D03*
X0081970Y0062235D03*
X0082000Y0062235D03*
X0082030Y0062235D03*
X0082060Y0062235D03*
X0082090Y0062235D03*
X0082120Y0062235D03*
X0082150Y0062235D03*
X0082180Y0062235D03*
X0082210Y0062235D03*
X0082240Y0062235D03*
X0082270Y0062235D03*
X0082300Y0062235D03*
X0082330Y0062235D03*
X0082360Y0062235D03*
X0082390Y0062235D03*
X0082420Y0062235D03*
X0082450Y0062235D03*
X0082480Y0062235D03*
X0082510Y0062235D03*
X0082540Y0062235D03*
X0082570Y0062235D03*
X0082600Y0062235D03*
X0082630Y0062235D03*
X0082660Y0062235D03*
X0082690Y0062235D03*
X0082720Y0062235D03*
X0082750Y0062235D03*
X0082780Y0062235D03*
X0082810Y0062235D03*
X0082840Y0062235D03*
X0082870Y0062235D03*
X0082900Y0062235D03*
X0082930Y0062235D03*
X0082960Y0062235D03*
X0082990Y0062235D03*
X0083020Y0062235D03*
X0083050Y0062235D03*
X0083080Y0062235D03*
X0083110Y0062235D03*
X0083140Y0062235D03*
X0083170Y0062235D03*
X0083200Y0062235D03*
X0083230Y0062235D03*
X0083260Y0062235D03*
X0083290Y0062235D03*
X0083320Y0062235D03*
X0083350Y0062235D03*
X0083380Y0062235D03*
X0083410Y0062235D03*
X0083440Y0062235D03*
X0083470Y0062235D03*
X0083500Y0062235D03*
X0083530Y0062235D03*
X0083560Y0062235D03*
X0083590Y0062235D03*
X0083620Y0062235D03*
X0083650Y0062235D03*
X0083680Y0062235D03*
X0083710Y0062235D03*
X0083740Y0062235D03*
X0083770Y0062235D03*
X0083800Y0062235D03*
X0083830Y0062235D03*
X0083860Y0062235D03*
X0083890Y0062235D03*
X0083920Y0062235D03*
X0083950Y0062235D03*
X0083980Y0062235D03*
X0084010Y0062235D03*
X0084040Y0062235D03*
X0084070Y0062235D03*
X0084100Y0062235D03*
X0084130Y0062235D03*
X0084160Y0062235D03*
X0084190Y0062235D03*
X0084220Y0062235D03*
X0084250Y0062235D03*
X0084280Y0062235D03*
X0084310Y0062235D03*
X0084340Y0062235D03*
X0084370Y0062235D03*
X0084400Y0062235D03*
X0084430Y0062235D03*
X0084460Y0062235D03*
X0084490Y0062235D03*
X0084520Y0062235D03*
X0084550Y0062235D03*
X0084580Y0062235D03*
X0084610Y0062235D03*
X0084640Y0062235D03*
X0084670Y0062235D03*
X0084700Y0062235D03*
X0084730Y0062235D03*
X0084760Y0062235D03*
X0084790Y0062235D03*
X0084820Y0062235D03*
X0084850Y0062235D03*
X0084880Y0062235D03*
X0084910Y0062235D03*
X0084940Y0062235D03*
X0084970Y0062235D03*
X0085000Y0062235D03*
X0085030Y0062235D03*
X0085060Y0062235D03*
X0085090Y0062235D03*
X0085120Y0062235D03*
X0085150Y0062235D03*
X0085180Y0062235D03*
X0085210Y0062235D03*
X0085240Y0062235D03*
X0085270Y0062235D03*
X0085300Y0062235D03*
X0085330Y0062235D03*
X0085360Y0062235D03*
X0085390Y0062235D03*
X0085420Y0062235D03*
X0085450Y0062235D03*
X0085480Y0062235D03*
X0085510Y0062235D03*
X0085540Y0062235D03*
X0085570Y0062235D03*
X0085600Y0062235D03*
X0085630Y0062235D03*
X0085660Y0062235D03*
X0085690Y0062235D03*
X0085720Y0062235D03*
X0085750Y0062235D03*
X0085780Y0062235D03*
X0085810Y0062235D03*
X0085840Y0062235D03*
X0085870Y0062235D03*
X0085900Y0062235D03*
X0085930Y0062235D03*
X0085960Y0062235D03*
X0085990Y0062235D03*
X0086020Y0062235D03*
X0086050Y0062235D03*
X0086080Y0062235D03*
X0086110Y0062235D03*
X0086140Y0062235D03*
X0086170Y0062235D03*
X0086200Y0062235D03*
X0086230Y0062235D03*
X0086260Y0062235D03*
X0086290Y0062235D03*
X0086320Y0062235D03*
X0086350Y0062235D03*
X0086380Y0062235D03*
X0086410Y0062235D03*
X0086440Y0062235D03*
X0086470Y0062235D03*
X0086500Y0062235D03*
X0086530Y0062235D03*
X0086560Y0062235D03*
X0086590Y0062235D03*
X0086620Y0062235D03*
X0086650Y0062235D03*
X0086680Y0062235D03*
X0086710Y0062235D03*
X0086740Y0062235D03*
X0086770Y0062235D03*
X0086800Y0062235D03*
X0086830Y0062235D03*
X0086860Y0062235D03*
X0086890Y0062235D03*
X0086920Y0062235D03*
X0086950Y0062235D03*
X0086980Y0062235D03*
X0087010Y0062235D03*
X0087040Y0062235D03*
X0087070Y0062235D03*
X0087100Y0062235D03*
X0087130Y0062235D03*
X0087160Y0062235D03*
X0087190Y0062235D03*
X0087220Y0062235D03*
X0087250Y0062235D03*
X0087280Y0062235D03*
X0087310Y0062235D03*
X0087340Y0062235D03*
X0087370Y0062235D03*
X0087400Y0062235D03*
X0087430Y0062235D03*
X0087460Y0062235D03*
X0087490Y0062235D03*
X0087520Y0062235D03*
X0087550Y0062235D03*
X0087580Y0062235D03*
X0087610Y0062235D03*
X0087640Y0062235D03*
X0087670Y0062235D03*
X0087700Y0062235D03*
X0087730Y0062235D03*
X0087760Y0062235D03*
X0087790Y0062235D03*
X0087820Y0062235D03*
X0087850Y0062235D03*
X0087880Y0062235D03*
X0087910Y0062235D03*
X0087940Y0062235D03*
X0087970Y0062235D03*
X0088000Y0062235D03*
X0088030Y0062235D03*
X0088060Y0062235D03*
X0088090Y0062235D03*
X0088120Y0062235D03*
X0088150Y0062235D03*
X0088180Y0062235D03*
X0088210Y0062235D03*
X0088240Y0062235D03*
X0088270Y0062235D03*
X0088300Y0062235D03*
X0088330Y0062235D03*
X0088360Y0062235D03*
X0088390Y0062235D03*
X0088420Y0062235D03*
X0088450Y0062235D03*
X0088480Y0062235D03*
X0088510Y0062235D03*
X0088540Y0062235D03*
X0088570Y0062235D03*
X0088600Y0062235D03*
X0088630Y0062235D03*
X0088660Y0062235D03*
X0088690Y0062235D03*
X0088720Y0062235D03*
X0088750Y0062235D03*
X0088780Y0062235D03*
X0088810Y0062235D03*
X0088840Y0062235D03*
X0088870Y0062235D03*
X0088900Y0062235D03*
X0088930Y0062235D03*
D24*
X0087700Y0066255D03*
X0087670Y0066255D03*
X0087640Y0066255D03*
X0087610Y0066255D03*
X0087580Y0066255D03*
X0087550Y0066255D03*
X0087520Y0066255D03*
X0087490Y0066255D03*
X0087460Y0066255D03*
X0087430Y0066255D03*
X0087400Y0066255D03*
X0087370Y0066255D03*
X0087340Y0066255D03*
X0087310Y0066255D03*
X0087280Y0066255D03*
X0087250Y0066255D03*
X0087220Y0066255D03*
X0087190Y0066255D03*
X0087160Y0066255D03*
X0087130Y0066255D03*
X0087100Y0066255D03*
X0087070Y0066255D03*
X0087040Y0066255D03*
X0087010Y0066255D03*
X0086980Y0066255D03*
X0086950Y0066255D03*
X0086920Y0066255D03*
X0086890Y0066255D03*
X0086860Y0066255D03*
X0086830Y0066255D03*
X0086800Y0066255D03*
X0086770Y0066255D03*
X0086740Y0066255D03*
X0086710Y0066255D03*
X0086680Y0066255D03*
X0086650Y0066255D03*
X0086620Y0066255D03*
X0086590Y0066255D03*
X0086560Y0066255D03*
X0086530Y0066255D03*
X0086500Y0066255D03*
X0086470Y0066255D03*
X0086440Y0066255D03*
X0086410Y0066255D03*
X0086380Y0066255D03*
X0086350Y0066255D03*
X0086320Y0066255D03*
X0086290Y0066255D03*
X0086260Y0066255D03*
X0086230Y0066255D03*
X0086200Y0066255D03*
X0086170Y0066255D03*
X0086140Y0066255D03*
X0086110Y0066255D03*
X0086080Y0066255D03*
X0086050Y0066255D03*
X0086020Y0066255D03*
X0085990Y0066255D03*
X0085960Y0066255D03*
X0085930Y0066255D03*
X0085900Y0066255D03*
X0085870Y0066255D03*
X0085840Y0066255D03*
X0085810Y0066255D03*
X0085780Y0066255D03*
X0085750Y0066255D03*
X0085720Y0066255D03*
X0085690Y0066255D03*
X0085660Y0066255D03*
X0085630Y0066255D03*
X0085600Y0066255D03*
X0085570Y0066255D03*
X0085540Y0066255D03*
X0085510Y0066255D03*
X0085480Y0066255D03*
X0085450Y0066255D03*
X0085420Y0066255D03*
X0085390Y0066255D03*
X0085360Y0066255D03*
X0085330Y0066255D03*
X0084100Y0066255D03*
X0084070Y0066255D03*
X0084040Y0066255D03*
X0084010Y0066255D03*
X0083980Y0066255D03*
X0083950Y0066255D03*
X0083920Y0066255D03*
X0083890Y0066255D03*
X0083860Y0066255D03*
X0083830Y0066255D03*
X0083800Y0066255D03*
X0083770Y0066255D03*
X0083740Y0066255D03*
X0083710Y0066255D03*
X0083680Y0066255D03*
X0083650Y0066255D03*
X0083620Y0066255D03*
X0083590Y0066255D03*
X0083560Y0066255D03*
X0083530Y0066255D03*
X0083500Y0066255D03*
X0083470Y0066255D03*
X0083440Y0066255D03*
X0083410Y0066255D03*
X0083380Y0066255D03*
X0083350Y0066255D03*
X0083320Y0066255D03*
X0083290Y0066255D03*
X0083260Y0066255D03*
X0083230Y0066255D03*
X0083200Y0066255D03*
X0083170Y0066255D03*
X0083140Y0066255D03*
X0083110Y0066255D03*
X0083080Y0066255D03*
X0083050Y0066255D03*
X0083020Y0066255D03*
X0082990Y0066255D03*
X0082960Y0066255D03*
X0082930Y0066255D03*
X0082900Y0066255D03*
X0082870Y0066255D03*
X0082840Y0066255D03*
X0082810Y0066255D03*
X0082780Y0066255D03*
X0082750Y0066255D03*
X0082720Y0066255D03*
X0082690Y0066255D03*
X0082660Y0066255D03*
X0082630Y0066255D03*
X0082600Y0066255D03*
X0082570Y0066255D03*
X0082540Y0066255D03*
X0082510Y0066255D03*
X0082480Y0066255D03*
X0082450Y0066255D03*
X0082420Y0066255D03*
X0082390Y0066255D03*
X0082360Y0066255D03*
X0082330Y0066255D03*
X0082300Y0066255D03*
X0082270Y0066255D03*
X0082240Y0066255D03*
X0082210Y0066255D03*
X0082180Y0066255D03*
X0082150Y0066255D03*
X0082120Y0066255D03*
X0082090Y0066255D03*
X0082060Y0066255D03*
X0082030Y0066255D03*
X0082000Y0066255D03*
X0081970Y0066255D03*
X0081940Y0066255D03*
X0081910Y0066255D03*
X0081880Y0066255D03*
X0081850Y0066255D03*
X0081820Y0066255D03*
X0081790Y0066255D03*
X0081760Y0066255D03*
X0081730Y0066255D03*
X0080500Y0066255D03*
X0080470Y0066255D03*
X0080440Y0066255D03*
X0080410Y0066255D03*
X0080380Y0066255D03*
X0080350Y0066255D03*
X0080320Y0066255D03*
X0080290Y0066255D03*
X0080260Y0066255D03*
X0080230Y0066255D03*
X0080200Y0066255D03*
X0080170Y0066255D03*
X0080140Y0066255D03*
X0080110Y0066255D03*
X0080080Y0066255D03*
X0080050Y0066255D03*
X0080020Y0066255D03*
X0079990Y0066255D03*
X0079960Y0066255D03*
X0079930Y0066255D03*
X0079900Y0066255D03*
X0079870Y0066255D03*
X0079840Y0066255D03*
X0079810Y0066255D03*
X0079780Y0066255D03*
X0079750Y0066255D03*
X0079720Y0066255D03*
X0079690Y0066255D03*
X0079660Y0066255D03*
X0079630Y0066255D03*
X0079600Y0066255D03*
X0079570Y0066255D03*
X0079540Y0066255D03*
X0079510Y0066255D03*
X0079480Y0066255D03*
X0079450Y0066255D03*
X0079420Y0066255D03*
X0079390Y0066255D03*
X0079360Y0066255D03*
X0079330Y0066255D03*
X0079300Y0066255D03*
X0079270Y0066255D03*
X0079240Y0066255D03*
X0079210Y0066255D03*
X0079180Y0066255D03*
X0079150Y0066255D03*
X0079120Y0066255D03*
X0079090Y0066255D03*
X0079060Y0066255D03*
X0079030Y0066255D03*
X0079000Y0066255D03*
X0078970Y0066255D03*
X0078940Y0066255D03*
X0078910Y0066255D03*
X0078880Y0066255D03*
X0078850Y0066255D03*
X0078820Y0066255D03*
X0078790Y0066255D03*
X0078760Y0066255D03*
X0078730Y0066255D03*
X0078700Y0066255D03*
X0078670Y0066255D03*
X0078640Y0066255D03*
X0078610Y0066255D03*
X0078580Y0066255D03*
X0078550Y0066255D03*
X0078520Y0066255D03*
X0078490Y0066255D03*
X0078460Y0066255D03*
X0078430Y0066255D03*
X0078400Y0066255D03*
X0078370Y0066255D03*
X0078340Y0066255D03*
X0078310Y0066255D03*
X0078280Y0066255D03*
X0078250Y0066255D03*
X0078220Y0066255D03*
X0078190Y0066255D03*
X0078160Y0066255D03*
X0078130Y0066255D03*
X0076900Y0066255D03*
X0076870Y0066255D03*
X0076840Y0066255D03*
X0076810Y0066255D03*
X0076780Y0066255D03*
X0076750Y0066255D03*
X0076720Y0066255D03*
X0076690Y0066255D03*
X0076660Y0066255D03*
X0076630Y0066255D03*
X0076600Y0066255D03*
X0076570Y0066255D03*
X0076540Y0066255D03*
X0076510Y0066255D03*
X0076480Y0066255D03*
X0076450Y0066255D03*
X0076420Y0066255D03*
X0076390Y0066255D03*
X0076360Y0066255D03*
X0076330Y0066255D03*
X0076300Y0066255D03*
X0076270Y0066255D03*
X0076240Y0066255D03*
X0076210Y0066255D03*
X0076180Y0066255D03*
X0076150Y0066255D03*
X0076120Y0066255D03*
X0076090Y0066255D03*
X0076060Y0066255D03*
X0076030Y0066255D03*
X0076000Y0066255D03*
X0075970Y0066255D03*
X0075940Y0066255D03*
X0075910Y0066255D03*
X0075880Y0066255D03*
X0075850Y0066255D03*
X0075820Y0066255D03*
X0075790Y0066255D03*
X0075760Y0066255D03*
X0075730Y0066255D03*
X0075700Y0066255D03*
X0075670Y0066255D03*
X0075640Y0066255D03*
X0075610Y0066255D03*
X0075580Y0066255D03*
X0075550Y0066255D03*
X0075520Y0066255D03*
X0075490Y0066255D03*
X0075460Y0066255D03*
X0075430Y0066255D03*
X0075400Y0066255D03*
X0075370Y0066255D03*
X0075340Y0066255D03*
X0075310Y0066255D03*
X0075280Y0066255D03*
X0075250Y0066255D03*
X0075220Y0066255D03*
X0075190Y0066255D03*
X0075160Y0066255D03*
X0075130Y0066255D03*
X0075100Y0066255D03*
X0075070Y0066255D03*
X0075040Y0066255D03*
X0075010Y0066255D03*
X0074980Y0066255D03*
X0074950Y0066255D03*
X0074920Y0066255D03*
X0074890Y0066255D03*
X0074860Y0066255D03*
X0074830Y0066255D03*
X0074800Y0066255D03*
X0074770Y0066255D03*
X0074740Y0066255D03*
X0074710Y0066255D03*
X0074680Y0066255D03*
X0074650Y0066255D03*
X0074620Y0066255D03*
X0074590Y0066255D03*
X0074560Y0066255D03*
X0074530Y0066255D03*
X0074500Y0066255D03*
X0074470Y0066255D03*
X0074440Y0066255D03*
X0074410Y0066255D03*
X0074380Y0066255D03*
X0074350Y0066255D03*
X0074320Y0066255D03*
X0074290Y0066255D03*
X0074260Y0066255D03*
X0074230Y0066255D03*
X0074200Y0066255D03*
X0074170Y0066255D03*
X0074140Y0066255D03*
X0074110Y0066255D03*
X0074080Y0066255D03*
X0074050Y0066255D03*
X0074020Y0066255D03*
X0073990Y0066255D03*
X0073960Y0066255D03*
X0073930Y0066255D03*
X0073900Y0066255D03*
X0073870Y0066255D03*
X0073840Y0066255D03*
X0073810Y0066255D03*
X0073780Y0066255D03*
X0073750Y0066255D03*
X0073720Y0066255D03*
X0073690Y0066255D03*
X0073660Y0066255D03*
X0073630Y0066255D03*
X0073600Y0066255D03*
X0073570Y0066255D03*
X0073540Y0066255D03*
X0073510Y0066255D03*
X0073480Y0066255D03*
X0073450Y0066255D03*
X0073420Y0066255D03*
X0073390Y0066255D03*
X0073360Y0066255D03*
X0073330Y0066255D03*
X0073300Y0066285D03*
X0070660Y0066285D03*
X0070630Y0066285D03*
X0070600Y0066285D03*
X0070570Y0066285D03*
X0070540Y0066285D03*
X0070510Y0066285D03*
X0070480Y0066285D03*
X0070450Y0066285D03*
X0070420Y0066285D03*
X0070390Y0066285D03*
X0070360Y0066285D03*
X0070330Y0066285D03*
X0070300Y0066285D03*
X0070270Y0066285D03*
X0070240Y0066285D03*
X0070210Y0066285D03*
X0070180Y0066285D03*
X0070150Y0066285D03*
X0070120Y0066285D03*
X0070090Y0066285D03*
X0070060Y0066285D03*
X0070030Y0066285D03*
X0070000Y0066285D03*
X0069970Y0066285D03*
X0069940Y0066285D03*
X0069910Y0066285D03*
X0069880Y0066285D03*
X0069850Y0066285D03*
X0069820Y0066285D03*
X0069790Y0066285D03*
X0069760Y0066285D03*
X0069730Y0066285D03*
D25*
X0072220Y0066270D03*
D26*
X0072160Y0066270D03*
D27*
X0072100Y0066270D03*
D28*
X0072070Y0066270D03*
D29*
X0072040Y0066285D03*
X0072010Y0066285D03*
X0071980Y0066285D03*
X0071950Y0066285D03*
X0071920Y0066285D03*
X0071890Y0066285D03*
X0071860Y0066285D03*
X0071830Y0066285D03*
X0071800Y0066285D03*
X0071770Y0066285D03*
X0071740Y0066285D03*
X0071710Y0066285D03*
X0071680Y0066285D03*
X0071650Y0066285D03*
X0071620Y0066285D03*
X0071590Y0066285D03*
X0071560Y0066285D03*
X0071530Y0066285D03*
X0071500Y0066285D03*
X0071470Y0066285D03*
X0071440Y0066285D03*
X0071410Y0066285D03*
X0071380Y0066285D03*
X0071350Y0066285D03*
X0071320Y0066285D03*
X0071290Y0066285D03*
X0071260Y0066285D03*
X0071230Y0066285D03*
X0071200Y0066285D03*
X0071170Y0066285D03*
D30*
X0071140Y0066285D03*
X0071110Y0066285D03*
X0071080Y0066285D03*
X0071050Y0066285D03*
D31*
X0071020Y0066285D03*
X0070990Y0066285D03*
D32*
X0070960Y0066285D03*
X0070930Y0066285D03*
D33*
X0070900Y0066285D03*
D34*
X0070870Y0066285D03*
X0070840Y0066285D03*
X0068800Y0066255D03*
D35*
X0068770Y0066255D03*
X0070810Y0066285D03*
D36*
X0070780Y0066285D03*
X0068710Y0066255D03*
D37*
X0070750Y0066285D03*
D38*
X0070720Y0066285D03*
X0068620Y0066255D03*
D39*
X0070690Y0066270D03*
D40*
X0069700Y0066255D03*
D41*
X0069670Y0066255D03*
D42*
X0069640Y0066255D03*
D43*
X0069610Y0066255D03*
D44*
X0069580Y0066255D03*
D45*
X0069550Y0066255D03*
D46*
X0069520Y0066255D03*
D47*
X0069490Y0066255D03*
D48*
X0069460Y0066255D03*
D49*
X0069430Y0066255D03*
D50*
X0069400Y0066255D03*
D51*
X0069370Y0066255D03*
D52*
X0069340Y0066255D03*
D53*
X0069310Y0066255D03*
D54*
X0069280Y0066255D03*
D55*
X0069250Y0066255D03*
D56*
X0069220Y0066255D03*
D57*
X0069190Y0066255D03*
D58*
X0069160Y0066255D03*
D59*
X0069130Y0066255D03*
D60*
X0069100Y0066270D03*
D61*
X0069070Y0066270D03*
D62*
X0069040Y0066270D03*
D63*
X0069010Y0066270D03*
D64*
X0068980Y0066270D03*
D65*
X0068950Y0066270D03*
D66*
X0068920Y0066270D03*
D67*
X0068890Y0066270D03*
D68*
X0068860Y0066270D03*
D69*
X0068830Y0066270D03*
D70*
X0068740Y0066255D03*
D71*
X0068680Y0066255D03*
D72*
X0068650Y0066255D03*
D73*
X0068590Y0066255D03*
D74*
X0068560Y0066255D03*
D75*
X0068530Y0066255D03*
D76*
X0068500Y0066270D03*
D77*
X0068470Y0066270D03*
D78*
X0068440Y0066270D03*
D79*
X0068410Y0066270D03*
D80*
X0068380Y0066270D03*
D81*
X0068350Y0066270D03*
D82*
X0068320Y0066270D03*
D83*
X0068290Y0066270D03*
D84*
X0068260Y0066270D03*
D85*
X0068230Y0066270D03*
D86*
X0068200Y0066270D03*
D87*
X0068170Y0066270D03*
D88*
X0068140Y0066270D03*
D89*
X0068110Y0066270D03*
D90*
X0068080Y0066270D03*
D91*
X0068050Y0066270D03*
D92*
X0068020Y0066270D03*
D93*
X0067990Y0066270D03*
D94*
X0067960Y0066270D03*
D95*
X0067930Y0066270D03*
X0067900Y0066270D03*
D96*
X0067870Y0066270D03*
D97*
X0067840Y0066270D03*
D98*
X0067810Y0066270D03*
D99*
X0067780Y0066270D03*
D100*
X0067750Y0066270D03*
D101*
X0067720Y0066270D03*
D102*
X0067690Y0066270D03*
D103*
X0067660Y0066270D03*
D104*
X0067630Y0066270D03*
D105*
X0067600Y0066270D03*
D106*
X0067570Y0066270D03*
D107*
X0067540Y0066270D03*
D108*
X0067510Y0066270D03*
D109*
X0067480Y0066270D03*
D110*
X0067450Y0066270D03*
D111*
X0067420Y0066270D03*
D112*
X0067390Y0066270D03*
D113*
X0067360Y0066270D03*
D114*
X0067330Y0066270D03*
D115*
X0067300Y0066285D03*
D116*
X0067270Y0066285D03*
D117*
X0067240Y0066285D03*
D118*
X0067210Y0066285D03*
D119*
X0067180Y0066285D03*
D120*
X0067150Y0066285D03*
D121*
X0067120Y0066285D03*
D122*
X0067090Y0066285D03*
D123*
X0067060Y0066285D03*
D124*
X0067030Y0066285D03*
D125*
X0067000Y0066270D03*
D126*
X0066970Y0066270D03*
D127*
X0066940Y0066270D03*
D128*
X0066910Y0066270D03*
D129*
X0066880Y0066270D03*
D130*
X0066850Y0066270D03*
D131*
X0066820Y0066270D03*
D132*
X0066790Y0066270D03*
D133*
X0066760Y0066270D03*
D134*
X0066730Y0066270D03*
D135*
X0066700Y0066285D03*
D136*
X0066670Y0066285D03*
D137*
X0066640Y0066285D03*
D138*
X0066610Y0066285D03*
D139*
X0066580Y0066285D03*
D140*
X0066550Y0066285D03*
D141*
X0066520Y0066285D03*
D142*
X0066490Y0066285D03*
D143*
X0066460Y0066285D03*
D144*
X0066430Y0066285D03*
D145*
X0066400Y0066285D03*
D146*
X0066370Y0066285D03*
D147*
X0066340Y0066285D03*
D148*
X0066310Y0066285D03*
D149*
X0066280Y0066285D03*
D150*
X0066250Y0066285D03*
D151*
X0066220Y0066285D03*
D152*
X0066190Y0066285D03*
D153*
X0066160Y0066285D03*
D154*
X0049000Y0054000D02*
X0049000Y0039000D01*
X0044000Y0039000D01*
X0044000Y0056500D01*
X0046500Y0059000D01*
X0094000Y0059000D01*
X0094000Y0071500D01*
X0099000Y0071500D01*
X0099000Y0056500D01*
X0096500Y0054000D01*
X0049000Y0054000D01*
X0049000Y0053674D02*
X0044000Y0053674D01*
X0044000Y0052676D02*
X0049000Y0052676D01*
X0049000Y0051677D02*
X0044000Y0051677D01*
X0044000Y0050679D02*
X0049000Y0050679D01*
X0049000Y0049680D02*
X0044000Y0049680D01*
X0044000Y0048682D02*
X0049000Y0048682D01*
X0049000Y0047683D02*
X0044000Y0047683D01*
X0044000Y0046684D02*
X0049000Y0046684D01*
X0049000Y0045686D02*
X0044000Y0045686D01*
X0044000Y0044687D02*
X0049000Y0044687D01*
X0049000Y0043689D02*
X0044000Y0043689D01*
X0044000Y0042690D02*
X0049000Y0042690D01*
X0049000Y0041692D02*
X0044000Y0041692D01*
X0044000Y0040693D02*
X0049000Y0040693D01*
X0049000Y0039695D02*
X0044000Y0039695D01*
X0039000Y0039695D02*
X0034000Y0039695D01*
X0034000Y0040693D02*
X0039000Y0040693D01*
X0039000Y0041692D02*
X0034000Y0041692D01*
X0034000Y0042690D02*
X0039000Y0042690D01*
X0039000Y0043689D02*
X0034000Y0043689D01*
X0034000Y0044000D02*
X0025250Y0044000D01*
X0025250Y0069000D01*
X0030250Y0069000D01*
X0030250Y0049000D01*
X0036500Y0049000D01*
X0039000Y0046500D01*
X0039000Y0034000D01*
X0054000Y0034000D01*
X0054000Y0046500D01*
X0056500Y0049000D01*
X0096500Y0049000D01*
X0099000Y0046500D01*
X0099000Y0031500D01*
X0094000Y0031500D01*
X0094000Y0044000D01*
X0059000Y0044000D01*
X0059000Y0031500D01*
X0056500Y0029000D01*
X0036500Y0029000D01*
X0034000Y0031500D01*
X0034000Y0044000D01*
X0039000Y0044687D02*
X0025250Y0044687D01*
X0025250Y0045686D02*
X0039000Y0045686D01*
X0038816Y0046684D02*
X0025250Y0046684D01*
X0025250Y0047683D02*
X0037817Y0047683D01*
X0036818Y0048682D02*
X0025250Y0048682D01*
X0025250Y0049680D02*
X0030250Y0049680D01*
X0030250Y0050679D02*
X0025250Y0050679D01*
X0025250Y0051677D02*
X0030250Y0051677D01*
X0030250Y0052676D02*
X0025250Y0052676D01*
X0025250Y0053674D02*
X0030250Y0053674D01*
X0030250Y0054673D02*
X0025250Y0054673D01*
X0025250Y0055671D02*
X0030250Y0055671D01*
X0030250Y0056670D02*
X0025250Y0056670D01*
X0025250Y0057668D02*
X0030250Y0057668D01*
X0030250Y0058667D02*
X0025250Y0058667D01*
X0025250Y0059665D02*
X0030250Y0059665D01*
X0030250Y0060664D02*
X0025250Y0060664D01*
X0025250Y0061662D02*
X0030250Y0061662D01*
X0030250Y0062661D02*
X0025250Y0062661D01*
X0025250Y0063659D02*
X0030250Y0063659D01*
X0030250Y0064658D02*
X0025250Y0064658D01*
X0025250Y0065656D02*
X0030250Y0065656D01*
X0030250Y0066655D02*
X0025250Y0066655D01*
X0025250Y0067653D02*
X0030250Y0067653D01*
X0030250Y0068652D02*
X0025250Y0068652D01*
X0011500Y0068652D02*
X0006500Y0068652D01*
X0006500Y0069000D02*
X0011500Y0069000D01*
X0011500Y0057750D01*
X0017750Y0057750D01*
X0020250Y0055250D01*
X0020250Y0015250D01*
X0017750Y0012750D01*
X0005250Y0012750D01*
X0004000Y0014000D01*
X0004000Y0016500D01*
X0005250Y0017750D01*
X0015250Y0017750D01*
X0015250Y0052750D01*
X0009000Y0052750D01*
X0006500Y0055250D01*
X0006500Y0069000D01*
X0006500Y0067653D02*
X0011500Y0067653D01*
X0011500Y0066655D02*
X0006500Y0066655D01*
X0006500Y0065656D02*
X0011500Y0065656D01*
X0011500Y0064658D02*
X0006500Y0064658D01*
X0006500Y0063659D02*
X0011500Y0063659D01*
X0011500Y0062661D02*
X0006500Y0062661D01*
X0006500Y0061662D02*
X0011500Y0061662D01*
X0011500Y0060664D02*
X0006500Y0060664D01*
X0006500Y0059665D02*
X0011500Y0059665D01*
X0011500Y0058667D02*
X0006500Y0058667D01*
X0006500Y0057668D02*
X0017832Y0057668D01*
X0018830Y0056670D02*
X0006500Y0056670D01*
X0006500Y0055671D02*
X0019829Y0055671D01*
X0020250Y0054673D02*
X0007077Y0054673D01*
X0008076Y0053674D02*
X0020250Y0053674D01*
X0020250Y0052676D02*
X0015250Y0052676D01*
X0015250Y0051677D02*
X0020250Y0051677D01*
X0020250Y0050679D02*
X0015250Y0050679D01*
X0015250Y0049680D02*
X0020250Y0049680D01*
X0020250Y0048682D02*
X0015250Y0048682D01*
X0015250Y0047683D02*
X0020250Y0047683D01*
X0020250Y0046684D02*
X0015250Y0046684D01*
X0015250Y0045686D02*
X0020250Y0045686D01*
X0020250Y0044687D02*
X0015250Y0044687D01*
X0015250Y0043689D02*
X0020250Y0043689D01*
X0020250Y0042690D02*
X0015250Y0042690D01*
X0015250Y0041692D02*
X0020250Y0041692D01*
X0020250Y0040693D02*
X0015250Y0040693D01*
X0015250Y0039695D02*
X0020250Y0039695D01*
X0020250Y0038696D02*
X0015250Y0038696D01*
X0015250Y0037698D02*
X0020250Y0037698D01*
X0020250Y0036699D02*
X0015250Y0036699D01*
X0015250Y0035701D02*
X0020250Y0035701D01*
X0020250Y0034702D02*
X0015250Y0034702D01*
X0015250Y0033704D02*
X0020250Y0033704D01*
X0020250Y0032705D02*
X0015250Y0032705D01*
X0015250Y0031707D02*
X0020250Y0031707D01*
X0020250Y0030708D02*
X0015250Y0030708D01*
X0015250Y0029710D02*
X0020250Y0029710D01*
X0020250Y0028711D02*
X0015250Y0028711D01*
X0015250Y0027713D02*
X0020250Y0027713D01*
X0020250Y0026714D02*
X0015250Y0026714D01*
X0015250Y0025716D02*
X0020250Y0025716D01*
X0020250Y0024717D02*
X0015250Y0024717D01*
X0015250Y0023719D02*
X0020250Y0023719D01*
X0020250Y0022720D02*
X0015250Y0022720D01*
X0015250Y0021722D02*
X0020250Y0021722D01*
X0020250Y0020723D02*
X0015250Y0020723D01*
X0015250Y0019725D02*
X0020250Y0019725D01*
X0020250Y0018726D02*
X0015250Y0018726D01*
X0020250Y0017728D02*
X0005228Y0017728D01*
X0004229Y0016729D02*
X0020250Y0016729D01*
X0020250Y0015731D02*
X0004000Y0015731D01*
X0004000Y0014732D02*
X0019732Y0014732D01*
X0018734Y0013734D02*
X0004266Y0013734D01*
X0034000Y0031707D02*
X0059000Y0031707D01*
X0058208Y0030708D02*
X0034792Y0030708D01*
X0035790Y0029710D02*
X0057210Y0029710D01*
X0059000Y0032705D02*
X0034000Y0032705D01*
X0034000Y0033704D02*
X0059000Y0033704D01*
X0059000Y0034702D02*
X0054000Y0034702D01*
X0054000Y0035701D02*
X0059000Y0035701D01*
X0059000Y0036699D02*
X0054000Y0036699D01*
X0054000Y0037698D02*
X0059000Y0037698D01*
X0059000Y0038696D02*
X0054000Y0038696D01*
X0054000Y0039695D02*
X0059000Y0039695D01*
X0059000Y0040693D02*
X0054000Y0040693D01*
X0054000Y0041692D02*
X0059000Y0041692D01*
X0059000Y0042690D02*
X0054000Y0042690D01*
X0054000Y0043689D02*
X0059000Y0043689D01*
X0054000Y0044687D02*
X0099000Y0044687D01*
X0099000Y0043689D02*
X0094000Y0043689D01*
X0094000Y0042690D02*
X0099000Y0042690D01*
X0099000Y0041692D02*
X0094000Y0041692D01*
X0094000Y0040693D02*
X0099000Y0040693D01*
X0099000Y0039695D02*
X0094000Y0039695D01*
X0094000Y0038696D02*
X0099000Y0038696D01*
X0099000Y0037698D02*
X0094000Y0037698D01*
X0094000Y0036699D02*
X0099000Y0036699D01*
X0099000Y0035701D02*
X0094000Y0035701D01*
X0094000Y0034702D02*
X0099000Y0034702D01*
X0099000Y0033704D02*
X0094000Y0033704D01*
X0094000Y0032705D02*
X0099000Y0032705D01*
X0099000Y0031707D02*
X0094000Y0031707D01*
X0099000Y0045686D02*
X0054000Y0045686D01*
X0054184Y0046684D02*
X0098816Y0046684D01*
X0097817Y0047683D02*
X0055183Y0047683D01*
X0056182Y0048682D02*
X0096818Y0048682D01*
X0097173Y0054673D02*
X0044000Y0054673D01*
X0044000Y0055671D02*
X0098171Y0055671D01*
X0099000Y0056670D02*
X0044170Y0056670D01*
X0045168Y0057668D02*
X0099000Y0057668D01*
X0099000Y0058667D02*
X0046167Y0058667D01*
X0039000Y0038696D02*
X0034000Y0038696D01*
X0034000Y0037698D02*
X0039000Y0037698D01*
X0039000Y0036699D02*
X0034000Y0036699D01*
X0034000Y0035701D02*
X0039000Y0035701D01*
X0039000Y0034702D02*
X0034000Y0034702D01*
X0094000Y0059665D02*
X0099000Y0059665D01*
X0099000Y0060664D02*
X0094000Y0060664D01*
X0094000Y0061662D02*
X0099000Y0061662D01*
X0099000Y0062661D02*
X0094000Y0062661D01*
X0094000Y0063659D02*
X0099000Y0063659D01*
X0099000Y0064658D02*
X0094000Y0064658D01*
X0094000Y0065656D02*
X0099000Y0065656D01*
X0099000Y0066655D02*
X0094000Y0066655D01*
X0094000Y0067653D02*
X0099000Y0067653D01*
X0099000Y0068652D02*
X0094000Y0068652D01*
X0094000Y0069650D02*
X0099000Y0069650D01*
X0099000Y0070649D02*
X0094000Y0070649D01*
D155*
X0096500Y0069000D03*
X0096500Y0064000D03*
X0064000Y0046500D03*
X0059000Y0046500D03*
X0046500Y0041500D03*
X0046500Y0051500D03*
X0032750Y0046500D03*
X0027750Y0046500D03*
X0015250Y0055250D03*
X0010250Y0055250D03*
X0009000Y0066500D03*
X0027750Y0066500D03*
X0040250Y0031500D03*
X0051500Y0031500D03*
X0096500Y0034000D03*
X0096500Y0039000D03*
D156*
X0070250Y0037750D03*
X0071500Y0015250D03*
X0047750Y0012750D03*
X0029000Y0032750D03*
X0010250Y0015250D03*
X0006500Y0015250D03*
D157*
X0029000Y0026500D02*
X0029000Y0032750D01*
X0029000Y0026500D02*
X0031500Y0024000D01*
X0066500Y0024000D01*
X0071500Y0019000D01*
X0071500Y0015250D01*
X0067750Y0010250D02*
X0065250Y0012750D01*
X0047750Y0012750D01*
X0067750Y0010250D02*
X0075250Y0010250D01*
X0077750Y0012750D01*
X0077750Y0030250D01*
X0070250Y0037750D01*
M02*
