%
M48
M72
T01C0.01969
%
T01
X6500Y15250
X10250Y15250
X29000Y32750
X40250Y31500
X51500Y31500
X46500Y41500
X59000Y46500
X64000Y46500
X70250Y37750
X46500Y51500
X32750Y46500
X27750Y46500
X15250Y55250
X10250Y55250
X9000Y66500
X27750Y66500
X71500Y15250
X47750Y12750
X96500Y34000
X96500Y39000
X96500Y64000
X96500Y69000
M30
