G75*
%MOIN*%
%OFA0B0*%
%FSLAX25Y25*%
%IPPOS*%
%LPD*%
%AMOC8*
5,1,8,0,0,1.08239X$1,22.5*
%
%ADD10C,0.01000*%
%ADD11C,0.00200*%
%ADD12C,0.00600*%
%ADD13C,0.00800*%
D10*
X0001500Y0001500D02*
X0001500Y0074000D01*
X0101500Y0074000D01*
X0101500Y0001500D01*
X0001500Y0001500D01*
X0019000Y0062750D02*
X0022750Y0066500D01*
X0019000Y0070250D01*
X0019000Y0066500D01*
X0015250Y0066500D01*
X0019000Y0066500D02*
X0019000Y0062750D01*
X0087750Y0044000D02*
X0101500Y0044000D01*
X0101500Y0059000D02*
X0092750Y0059000D01*
X0092750Y0029000D02*
X0101500Y0029000D01*
D11*
X0076400Y0029467D02*
X0076033Y0029100D01*
X0074565Y0029100D01*
X0074198Y0029467D01*
X0074198Y0030201D01*
X0074565Y0030568D01*
X0076033Y0030568D01*
X0076400Y0030201D01*
X0076400Y0029467D01*
X0075666Y0029834D02*
X0076400Y0030568D01*
X0076400Y0031310D02*
X0074932Y0032778D01*
X0074565Y0032778D01*
X0074198Y0032411D01*
X0074198Y0031677D01*
X0074565Y0031310D01*
X0076400Y0031310D02*
X0076400Y0032778D01*
X0070348Y0047180D02*
X0070348Y0048648D01*
X0070348Y0047914D02*
X0072550Y0047914D01*
X0072550Y0049390D02*
X0071082Y0050858D01*
X0070715Y0050858D01*
X0070348Y0050491D01*
X0070348Y0049757D01*
X0070715Y0049390D01*
X0072550Y0049390D02*
X0072550Y0050858D01*
X0067650Y0060350D02*
X0067650Y0061818D01*
X0067650Y0061084D02*
X0065448Y0061084D01*
X0066182Y0060350D01*
X0065815Y0062560D02*
X0065448Y0062927D01*
X0065448Y0063661D01*
X0065815Y0064028D01*
X0067283Y0062560D01*
X0067650Y0062927D01*
X0067650Y0063661D01*
X0067283Y0064028D01*
X0065815Y0064028D01*
X0065448Y0064770D02*
X0067650Y0064770D01*
X0066916Y0064770D02*
X0065448Y0066238D01*
X0066549Y0065137D02*
X0067650Y0066238D01*
X0067283Y0062560D02*
X0065815Y0062560D01*
X0046400Y0062927D02*
X0046033Y0062560D01*
X0044565Y0064028D01*
X0046033Y0064028D01*
X0046400Y0063661D01*
X0046400Y0062927D01*
X0046033Y0062560D02*
X0044565Y0062560D01*
X0044198Y0062927D01*
X0044198Y0063661D01*
X0044565Y0064028D01*
X0044198Y0064770D02*
X0046400Y0064770D01*
X0045666Y0064770D02*
X0044198Y0066238D01*
X0045299Y0065137D02*
X0046400Y0066238D01*
X0046400Y0061818D02*
X0046400Y0060350D01*
X0046400Y0061084D02*
X0044198Y0061084D01*
X0044932Y0060350D01*
X0038800Y0050858D02*
X0038800Y0049390D01*
X0038800Y0050124D02*
X0036598Y0050124D01*
X0037332Y0049390D01*
X0036598Y0048648D02*
X0036598Y0047180D01*
X0036598Y0047914D02*
X0038800Y0047914D01*
X0036400Y0036238D02*
X0035299Y0035137D01*
X0035666Y0034770D02*
X0034198Y0036238D01*
X0034198Y0034770D02*
X0036400Y0034770D01*
X0036033Y0034028D02*
X0036400Y0033661D01*
X0036400Y0032927D01*
X0036033Y0032560D01*
X0034565Y0034028D01*
X0036033Y0034028D01*
X0034565Y0034028D02*
X0034198Y0033661D01*
X0034198Y0032927D01*
X0034565Y0032560D01*
X0036033Y0032560D01*
X0036400Y0031818D02*
X0036400Y0030350D01*
X0036400Y0031084D02*
X0034198Y0031084D01*
X0034932Y0030350D01*
X0025150Y0023371D02*
X0024783Y0023738D01*
X0024416Y0023738D01*
X0024049Y0023371D01*
X0024049Y0023004D01*
X0024049Y0023371D02*
X0023682Y0023738D01*
X0023315Y0023738D01*
X0022948Y0023371D01*
X0022948Y0022637D01*
X0023315Y0022270D01*
X0022948Y0021528D02*
X0024416Y0021528D01*
X0025150Y0020794D01*
X0024416Y0020060D01*
X0022948Y0020060D01*
X0023315Y0019318D02*
X0023682Y0019318D01*
X0024049Y0018951D01*
X0024416Y0019318D01*
X0024783Y0019318D01*
X0025150Y0018951D01*
X0025150Y0018217D01*
X0024783Y0017850D01*
X0024049Y0018584D02*
X0024049Y0018951D01*
X0023315Y0019318D02*
X0022948Y0018951D01*
X0022948Y0018217D01*
X0023315Y0017850D01*
X0024783Y0022270D02*
X0025150Y0022637D01*
X0025150Y0023371D01*
X0015150Y0029100D02*
X0015150Y0030568D01*
X0015150Y0029834D02*
X0012948Y0029834D01*
X0013682Y0029100D01*
X0013315Y0031310D02*
X0012948Y0031677D01*
X0012948Y0032411D01*
X0013315Y0032778D01*
X0014783Y0031310D01*
X0015150Y0031677D01*
X0015150Y0032411D01*
X0014783Y0032778D01*
X0013315Y0032778D01*
X0013315Y0033520D02*
X0012948Y0033887D01*
X0012948Y0034621D01*
X0013315Y0034988D01*
X0014783Y0033520D01*
X0015150Y0033887D01*
X0015150Y0034621D01*
X0014783Y0034988D01*
X0013315Y0034988D01*
X0013682Y0035730D02*
X0013682Y0036831D01*
X0014049Y0037198D01*
X0015150Y0037198D01*
X0015150Y0035730D02*
X0013682Y0035730D01*
X0013315Y0033520D02*
X0014783Y0033520D01*
X0014783Y0031310D02*
X0013315Y0031310D01*
X0013371Y0047850D02*
X0012637Y0047850D01*
X0012270Y0048217D01*
X0013738Y0049685D01*
X0013738Y0048217D01*
X0013371Y0047850D01*
X0012270Y0048217D02*
X0012270Y0049685D01*
X0012637Y0050052D01*
X0013371Y0050052D01*
X0013738Y0049685D01*
X0014480Y0049318D02*
X0014480Y0048217D01*
X0014847Y0047850D01*
X0015948Y0047850D01*
X0015948Y0049318D01*
X0016690Y0048951D02*
X0017423Y0048951D01*
X0016690Y0047850D02*
X0016690Y0050052D01*
X0018157Y0050052D01*
X0011528Y0049685D02*
X0011528Y0048217D01*
X0011161Y0047850D01*
X0010427Y0047850D01*
X0010060Y0048217D01*
X0011528Y0049685D01*
X0011161Y0050052D01*
X0010427Y0050052D01*
X0010060Y0049685D01*
X0010060Y0048217D01*
X0009318Y0047850D02*
X0007850Y0047850D01*
X0008584Y0047850D02*
X0008584Y0050052D01*
X0007850Y0049318D01*
X0005199Y0054390D02*
X0005199Y0055858D01*
X0004465Y0055124D02*
X0005933Y0055124D01*
X0050348Y0020491D02*
X0050348Y0019757D01*
X0050715Y0019390D01*
X0051082Y0019390D01*
X0051449Y0019757D01*
X0051449Y0020858D01*
X0050715Y0020858D02*
X0050348Y0020491D01*
X0050715Y0020858D02*
X0052183Y0020858D01*
X0052550Y0020491D01*
X0052550Y0019757D01*
X0052183Y0019390D01*
X0052550Y0018648D02*
X0052550Y0017180D01*
X0051082Y0018648D01*
X0050715Y0018648D01*
X0050348Y0018281D01*
X0050348Y0017547D01*
X0050715Y0017180D01*
X0050348Y0016438D02*
X0050715Y0015704D01*
X0051449Y0014970D01*
X0051449Y0016071D01*
X0051816Y0016438D01*
X0052183Y0016438D01*
X0052550Y0016071D01*
X0052550Y0015337D01*
X0052183Y0014970D01*
X0051449Y0014970D01*
X0050348Y0014228D02*
X0050348Y0012760D01*
X0052550Y0012760D01*
X0052550Y0012018D02*
X0052550Y0010551D01*
X0051082Y0012018D01*
X0050715Y0012018D01*
X0050348Y0011651D01*
X0050348Y0010918D01*
X0050715Y0010551D01*
X0050348Y0009075D02*
X0052550Y0009075D01*
X0052550Y0008341D02*
X0052550Y0009809D01*
X0051082Y0008341D02*
X0050348Y0009075D01*
X0051449Y0012760D02*
X0051449Y0013494D01*
X0056182Y0030350D02*
X0055448Y0031084D01*
X0057650Y0031084D01*
X0057650Y0030350D02*
X0057650Y0031818D01*
X0057283Y0032560D02*
X0055815Y0034028D01*
X0057283Y0034028D01*
X0057650Y0033661D01*
X0057650Y0032927D01*
X0057283Y0032560D01*
X0055815Y0032560D01*
X0055448Y0032927D01*
X0055448Y0033661D01*
X0055815Y0034028D01*
X0055448Y0034770D02*
X0057650Y0034770D01*
X0056916Y0034770D02*
X0055448Y0036238D01*
X0056549Y0035137D02*
X0057650Y0036238D01*
X0076400Y0017778D02*
X0076400Y0016310D01*
X0076400Y0017044D02*
X0074198Y0017044D01*
X0074932Y0016310D01*
X0074565Y0015568D02*
X0076033Y0015568D01*
X0076400Y0015201D01*
X0076400Y0014467D01*
X0076033Y0014100D01*
X0074565Y0014100D01*
X0074198Y0014467D01*
X0074198Y0015201D01*
X0074565Y0015568D01*
X0075666Y0014834D02*
X0076400Y0015568D01*
X0025150Y0010869D02*
X0025150Y0009401D01*
X0023682Y0010869D01*
X0023315Y0010869D01*
X0022948Y0010502D01*
X0022948Y0009768D01*
X0023315Y0009401D01*
X0023682Y0008661D02*
X0024416Y0007560D01*
X0025150Y0008661D01*
X0025150Y0007560D02*
X0022948Y0007560D01*
X0023315Y0006818D02*
X0022948Y0006451D01*
X0022948Y0005717D01*
X0023315Y0005350D01*
X0023315Y0006818D02*
X0023682Y0006818D01*
X0025150Y0005350D01*
X0025150Y0006818D01*
D12*
X0024600Y0014650D02*
X0021400Y0014650D01*
X0021400Y0016850D01*
X0021400Y0023650D02*
X0021400Y0025850D01*
X0024600Y0025850D01*
X0030652Y0039701D02*
X0044848Y0039701D01*
X0064402Y0039701D02*
X0078598Y0039701D01*
X0075850Y0035850D02*
X0072650Y0035850D01*
X0072650Y0033650D01*
X0072650Y0026850D02*
X0072650Y0024650D01*
X0075850Y0024650D01*
X0075850Y0020850D02*
X0072650Y0020850D01*
X0072650Y0018650D01*
X0072650Y0011850D02*
X0072650Y0009650D01*
X0075850Y0009650D01*
X0085297Y0010483D02*
X0085297Y0012185D01*
X0085864Y0012752D01*
X0086999Y0012752D01*
X0087566Y0012185D01*
X0087566Y0010483D01*
X0088700Y0010483D02*
X0085297Y0010483D01*
X0085864Y0009069D02*
X0085297Y0008501D01*
X0085297Y0007367D01*
X0085864Y0006800D01*
X0085864Y0009069D02*
X0086431Y0009069D01*
X0088700Y0006800D01*
X0088700Y0009069D01*
X0091250Y0014500D02*
X0091250Y0003500D01*
X0091252Y0003440D01*
X0091257Y0003379D01*
X0091266Y0003320D01*
X0091279Y0003261D01*
X0091295Y0003202D01*
X0091315Y0003145D01*
X0091338Y0003090D01*
X0091365Y0003035D01*
X0091394Y0002983D01*
X0091427Y0002932D01*
X0091463Y0002883D01*
X0091501Y0002837D01*
X0091543Y0002793D01*
X0091587Y0002751D01*
X0091633Y0002713D01*
X0091682Y0002677D01*
X0091733Y0002644D01*
X0091785Y0002615D01*
X0091840Y0002588D01*
X0091895Y0002565D01*
X0091952Y0002545D01*
X0092011Y0002529D01*
X0092070Y0002516D01*
X0092129Y0002507D01*
X0092190Y0002502D01*
X0092250Y0002500D01*
X0098250Y0002500D01*
X0098310Y0002502D01*
X0098371Y0002507D01*
X0098430Y0002516D01*
X0098489Y0002529D01*
X0098548Y0002545D01*
X0098605Y0002565D01*
X0098660Y0002588D01*
X0098715Y0002615D01*
X0098767Y0002644D01*
X0098818Y0002677D01*
X0098867Y0002713D01*
X0098913Y0002751D01*
X0098957Y0002793D01*
X0098999Y0002837D01*
X0099037Y0002883D01*
X0099073Y0002932D01*
X0099106Y0002983D01*
X0099135Y0003035D01*
X0099162Y0003090D01*
X0099185Y0003145D01*
X0099205Y0003202D01*
X0099221Y0003261D01*
X0099234Y0003320D01*
X0099243Y0003379D01*
X0099248Y0003440D01*
X0099250Y0003500D01*
X0099250Y0014500D01*
X0099248Y0014560D01*
X0099243Y0014621D01*
X0099234Y0014680D01*
X0099221Y0014739D01*
X0099205Y0014798D01*
X0099185Y0014855D01*
X0099162Y0014910D01*
X0099135Y0014965D01*
X0099106Y0015017D01*
X0099073Y0015068D01*
X0099037Y0015117D01*
X0098999Y0015163D01*
X0098957Y0015207D01*
X0098913Y0015249D01*
X0098867Y0015287D01*
X0098818Y0015323D01*
X0098767Y0015356D01*
X0098715Y0015385D01*
X0098660Y0015412D01*
X0098605Y0015435D01*
X0098548Y0015455D01*
X0098489Y0015471D01*
X0098430Y0015484D01*
X0098371Y0015493D01*
X0098310Y0015498D01*
X0098250Y0015500D01*
X0092250Y0015500D01*
X0092190Y0015498D01*
X0092129Y0015493D01*
X0092070Y0015484D01*
X0092011Y0015471D01*
X0091952Y0015455D01*
X0091895Y0015435D01*
X0091840Y0015412D01*
X0091785Y0015385D01*
X0091733Y0015356D01*
X0091682Y0015323D01*
X0091633Y0015287D01*
X0091587Y0015249D01*
X0091543Y0015207D01*
X0091501Y0015163D01*
X0091463Y0015117D01*
X0091427Y0015068D01*
X0091394Y0015017D01*
X0091365Y0014965D01*
X0091338Y0014910D01*
X0091315Y0014855D01*
X0091295Y0014798D01*
X0091279Y0014739D01*
X0091266Y0014680D01*
X0091257Y0014621D01*
X0091252Y0014560D01*
X0091250Y0014500D01*
X0086999Y0020550D02*
X0086999Y0022819D01*
X0086999Y0024233D02*
X0086999Y0025935D01*
X0087566Y0026502D01*
X0088133Y0026502D01*
X0088700Y0025935D01*
X0088700Y0024233D01*
X0085297Y0024233D01*
X0085297Y0025935D01*
X0085864Y0026502D01*
X0086431Y0026502D01*
X0086999Y0025935D01*
X0086999Y0027916D02*
X0086999Y0030185D01*
X0086431Y0030185D02*
X0088700Y0030185D01*
X0086431Y0030185D02*
X0085297Y0029051D01*
X0086431Y0027916D01*
X0088700Y0027916D01*
X0085297Y0031599D02*
X0085297Y0033868D01*
X0085297Y0032734D02*
X0088700Y0032734D01*
X0086999Y0035283D02*
X0086999Y0037551D01*
X0088133Y0036417D02*
X0085864Y0036417D01*
X0078598Y0058299D02*
X0064402Y0058299D01*
X0064934Y0069050D02*
X0064367Y0069617D01*
X0064934Y0069050D02*
X0066068Y0069050D01*
X0066635Y0069617D01*
X0066635Y0070184D01*
X0066068Y0070751D01*
X0065501Y0070751D01*
X0066068Y0070751D02*
X0066635Y0071319D01*
X0066635Y0071886D01*
X0066068Y0072453D01*
X0064934Y0072453D01*
X0064367Y0071886D01*
X0059269Y0071886D02*
X0059269Y0072453D01*
X0059269Y0071886D02*
X0058135Y0070751D01*
X0058135Y0069050D01*
X0058135Y0070751D02*
X0057001Y0071886D01*
X0057001Y0072453D01*
X0053317Y0072453D02*
X0053317Y0069050D01*
X0055586Y0069050D01*
X0051903Y0069050D02*
X0049634Y0069050D01*
X0049634Y0069617D01*
X0051903Y0071886D01*
X0051903Y0072453D01*
X0049634Y0072453D01*
X0048220Y0072453D02*
X0048220Y0071886D01*
X0045951Y0069617D01*
X0045951Y0069050D01*
X0048220Y0069050D01*
X0044630Y0069050D02*
X0043496Y0069050D01*
X0044063Y0069050D02*
X0044063Y0072453D01*
X0043496Y0072453D02*
X0044630Y0072453D01*
X0045951Y0072453D02*
X0048220Y0072453D01*
X0042081Y0071886D02*
X0042081Y0070751D01*
X0041514Y0070184D01*
X0039813Y0070184D01*
X0040947Y0070184D02*
X0042081Y0069050D01*
X0039813Y0069050D02*
X0039813Y0072453D01*
X0041514Y0072453D01*
X0042081Y0071886D01*
X0038398Y0071886D02*
X0037831Y0072453D01*
X0036697Y0072453D01*
X0036129Y0071886D01*
X0036129Y0069617D01*
X0036697Y0069050D01*
X0037831Y0069050D01*
X0038398Y0069617D01*
X0038398Y0070751D01*
X0037264Y0070751D01*
X0030652Y0058299D02*
X0044848Y0058299D01*
X0085297Y0059300D02*
X0086431Y0060434D01*
X0085297Y0061569D01*
X0088700Y0061569D01*
X0088133Y0062983D02*
X0088700Y0063550D01*
X0088700Y0064685D01*
X0088133Y0065252D01*
X0085864Y0065252D01*
X0085297Y0064685D01*
X0085297Y0063550D01*
X0085864Y0062983D01*
X0088133Y0062983D01*
X0088700Y0059300D02*
X0085297Y0059300D01*
X0085297Y0066666D02*
X0085297Y0068935D01*
X0085297Y0067801D02*
X0088700Y0067801D01*
X0057348Y0024549D02*
X0043152Y0024549D01*
X0043152Y0005951D02*
X0057348Y0005951D01*
D13*
X0045785Y0022350D02*
X0045787Y0022397D01*
X0045793Y0022444D01*
X0045803Y0022491D01*
X0045816Y0022536D01*
X0045834Y0022580D01*
X0045855Y0022622D01*
X0045879Y0022663D01*
X0045907Y0022701D01*
X0045938Y0022737D01*
X0045972Y0022770D01*
X0046008Y0022800D01*
X0046047Y0022827D01*
X0046088Y0022851D01*
X0046131Y0022871D01*
X0046175Y0022887D01*
X0046221Y0022900D01*
X0046267Y0022909D01*
X0046315Y0022914D01*
X0046362Y0022915D01*
X0046409Y0022912D01*
X0046456Y0022905D01*
X0046502Y0022894D01*
X0046547Y0022880D01*
X0046591Y0022861D01*
X0046632Y0022839D01*
X0046672Y0022814D01*
X0046710Y0022785D01*
X0046745Y0022754D01*
X0046778Y0022719D01*
X0046807Y0022682D01*
X0046833Y0022643D01*
X0046856Y0022601D01*
X0046875Y0022558D01*
X0046891Y0022513D01*
X0046903Y0022467D01*
X0046911Y0022421D01*
X0046915Y0022374D01*
X0046915Y0022326D01*
X0046911Y0022279D01*
X0046903Y0022233D01*
X0046891Y0022187D01*
X0046875Y0022142D01*
X0046856Y0022099D01*
X0046833Y0022057D01*
X0046807Y0022018D01*
X0046778Y0021981D01*
X0046745Y0021946D01*
X0046710Y0021915D01*
X0046672Y0021886D01*
X0046633Y0021861D01*
X0046591Y0021839D01*
X0046547Y0021820D01*
X0046502Y0021806D01*
X0046456Y0021795D01*
X0046409Y0021788D01*
X0046362Y0021785D01*
X0046315Y0021786D01*
X0046267Y0021791D01*
X0046221Y0021800D01*
X0046175Y0021813D01*
X0046131Y0021829D01*
X0046088Y0021849D01*
X0046047Y0021873D01*
X0046008Y0021900D01*
X0045972Y0021930D01*
X0045938Y0021963D01*
X0045907Y0021999D01*
X0045879Y0022037D01*
X0045855Y0022078D01*
X0045834Y0022120D01*
X0045816Y0022164D01*
X0045803Y0022209D01*
X0045793Y0022256D01*
X0045787Y0022303D01*
X0045785Y0022350D01*
X0033285Y0056100D02*
X0033287Y0056147D01*
X0033293Y0056194D01*
X0033303Y0056241D01*
X0033316Y0056286D01*
X0033334Y0056330D01*
X0033355Y0056372D01*
X0033379Y0056413D01*
X0033407Y0056451D01*
X0033438Y0056487D01*
X0033472Y0056520D01*
X0033508Y0056550D01*
X0033547Y0056577D01*
X0033588Y0056601D01*
X0033631Y0056621D01*
X0033675Y0056637D01*
X0033721Y0056650D01*
X0033767Y0056659D01*
X0033815Y0056664D01*
X0033862Y0056665D01*
X0033909Y0056662D01*
X0033956Y0056655D01*
X0034002Y0056644D01*
X0034047Y0056630D01*
X0034091Y0056611D01*
X0034132Y0056589D01*
X0034172Y0056564D01*
X0034210Y0056535D01*
X0034245Y0056504D01*
X0034278Y0056469D01*
X0034307Y0056432D01*
X0034333Y0056393D01*
X0034356Y0056351D01*
X0034375Y0056308D01*
X0034391Y0056263D01*
X0034403Y0056217D01*
X0034411Y0056171D01*
X0034415Y0056124D01*
X0034415Y0056076D01*
X0034411Y0056029D01*
X0034403Y0055983D01*
X0034391Y0055937D01*
X0034375Y0055892D01*
X0034356Y0055849D01*
X0034333Y0055807D01*
X0034307Y0055768D01*
X0034278Y0055731D01*
X0034245Y0055696D01*
X0034210Y0055665D01*
X0034172Y0055636D01*
X0034133Y0055611D01*
X0034091Y0055589D01*
X0034047Y0055570D01*
X0034002Y0055556D01*
X0033956Y0055545D01*
X0033909Y0055538D01*
X0033862Y0055535D01*
X0033815Y0055536D01*
X0033767Y0055541D01*
X0033721Y0055550D01*
X0033675Y0055563D01*
X0033631Y0055579D01*
X0033588Y0055599D01*
X0033547Y0055623D01*
X0033508Y0055650D01*
X0033472Y0055680D01*
X0033438Y0055713D01*
X0033407Y0055749D01*
X0033379Y0055787D01*
X0033355Y0055828D01*
X0033334Y0055870D01*
X0033316Y0055914D01*
X0033303Y0055959D01*
X0033293Y0056006D01*
X0033287Y0056053D01*
X0033285Y0056100D01*
X0028055Y0060791D02*
X0009945Y0060791D01*
X0009945Y0062563D01*
X0007589Y0059398D02*
X0017813Y0059398D01*
X0022937Y0062563D02*
X0022937Y0070437D01*
X0028055Y0070437D02*
X0028055Y0072209D01*
X0009945Y0072209D01*
X0009945Y0070437D01*
X0028055Y0062563D02*
X0028055Y0060791D01*
X0067035Y0056100D02*
X0067037Y0056147D01*
X0067043Y0056194D01*
X0067053Y0056241D01*
X0067066Y0056286D01*
X0067084Y0056330D01*
X0067105Y0056372D01*
X0067129Y0056413D01*
X0067157Y0056451D01*
X0067188Y0056487D01*
X0067222Y0056520D01*
X0067258Y0056550D01*
X0067297Y0056577D01*
X0067338Y0056601D01*
X0067381Y0056621D01*
X0067425Y0056637D01*
X0067471Y0056650D01*
X0067517Y0056659D01*
X0067565Y0056664D01*
X0067612Y0056665D01*
X0067659Y0056662D01*
X0067706Y0056655D01*
X0067752Y0056644D01*
X0067797Y0056630D01*
X0067841Y0056611D01*
X0067882Y0056589D01*
X0067922Y0056564D01*
X0067960Y0056535D01*
X0067995Y0056504D01*
X0068028Y0056469D01*
X0068057Y0056432D01*
X0068083Y0056393D01*
X0068106Y0056351D01*
X0068125Y0056308D01*
X0068141Y0056263D01*
X0068153Y0056217D01*
X0068161Y0056171D01*
X0068165Y0056124D01*
X0068165Y0056076D01*
X0068161Y0056029D01*
X0068153Y0055983D01*
X0068141Y0055937D01*
X0068125Y0055892D01*
X0068106Y0055849D01*
X0068083Y0055807D01*
X0068057Y0055768D01*
X0068028Y0055731D01*
X0067995Y0055696D01*
X0067960Y0055665D01*
X0067922Y0055636D01*
X0067883Y0055611D01*
X0067841Y0055589D01*
X0067797Y0055570D01*
X0067752Y0055556D01*
X0067706Y0055545D01*
X0067659Y0055538D01*
X0067612Y0055535D01*
X0067565Y0055536D01*
X0067517Y0055541D01*
X0067471Y0055550D01*
X0067425Y0055563D01*
X0067381Y0055579D01*
X0067338Y0055599D01*
X0067297Y0055623D01*
X0067258Y0055650D01*
X0067222Y0055680D01*
X0067188Y0055713D01*
X0067157Y0055749D01*
X0067129Y0055787D01*
X0067105Y0055828D01*
X0067084Y0055870D01*
X0067066Y0055914D01*
X0067053Y0055959D01*
X0067043Y0056006D01*
X0067037Y0056053D01*
X0067035Y0056100D01*
M02*
