G75*
%MOIN*%
%OFA0B0*%
%FSLAX25Y25*%
%IPPOS*%
%LPD*%
%AMOC8*
5,1,8,0,0,1.08239X$1,22.5*
%
%ADD10R,0.08700X0.02400*%
%ADD11R,0.07087X0.04724*%
%ADD12R,0.06969X0.05787*%
%ADD13R,0.05512X0.03937*%
%ADD14R,0.06300X0.04600*%
%ADD15R,0.09843X0.04724*%
%ADD16C,0.01000*%
%ADD17R,0.03569X0.03569*%
%ADD18C,0.03200*%
%ADD19C,0.01600*%
%ADD20C,0.03569*%
%ADD21C,0.02400*%
%ADD22C,0.05000*%
%ADD23C,0.05600*%
D10*
X0039950Y0007750D03*
X0039950Y0012750D03*
X0039950Y0017750D03*
X0039950Y0022750D03*
X0060550Y0022750D03*
X0060550Y0017750D03*
X0060550Y0012750D03*
X0060550Y0007750D03*
X0061200Y0041500D03*
X0061200Y0046500D03*
X0061200Y0051500D03*
X0061200Y0056500D03*
X0048050Y0056500D03*
X0048050Y0051500D03*
X0048050Y0046500D03*
X0048050Y0041500D03*
X0027450Y0041500D03*
X0027450Y0046500D03*
X0027450Y0051500D03*
X0027450Y0056500D03*
X0081800Y0056500D03*
X0081800Y0051500D03*
X0081800Y0046500D03*
X0081800Y0041500D03*
D11*
X0062402Y0032750D03*
X0050598Y0032750D03*
X0041152Y0032750D03*
X0029348Y0032750D03*
X0019902Y0032750D03*
X0008098Y0032750D03*
X0018098Y0007750D03*
X0029902Y0007750D03*
X0039348Y0064000D03*
X0051152Y0064000D03*
X0060598Y0064000D03*
X0072402Y0064000D03*
D12*
X0028449Y0066500D03*
X0009551Y0066500D03*
D13*
X0028331Y0023990D03*
X0019669Y0020250D03*
X0028331Y0016510D03*
X0070919Y0015250D03*
X0079581Y0011510D03*
X0079581Y0018990D03*
X0079581Y0026510D03*
X0070919Y0030250D03*
X0079581Y0033990D03*
D14*
X0095250Y0012000D03*
X0095250Y0006000D03*
D15*
X0012750Y0042504D03*
X0012750Y0055496D03*
D16*
X0018293Y0051634D02*
X0019171Y0052513D01*
X0019171Y0058480D01*
X0018293Y0059358D01*
X0007207Y0059358D01*
X0006329Y0058480D01*
X0006329Y0052513D01*
X0007207Y0051634D01*
X0018293Y0051634D01*
X0018336Y0051677D02*
X0021600Y0051677D01*
X0021600Y0052676D02*
X0019171Y0052676D01*
X0019171Y0053674D02*
X0021953Y0053674D01*
X0022179Y0054100D02*
X0022305Y0054027D01*
X0021600Y0053321D01*
X0021600Y0049679D01*
X0022279Y0049000D01*
X0021600Y0048321D01*
X0021600Y0044679D01*
X0022279Y0044000D01*
X0021600Y0043321D01*
X0021600Y0039679D01*
X0022479Y0038800D01*
X0026700Y0038800D01*
X0026700Y0036612D01*
X0025184Y0036612D01*
X0024625Y0036053D01*
X0024066Y0036612D01*
X0015737Y0036612D01*
X0014858Y0035734D01*
X0014858Y0029766D01*
X0015737Y0028888D01*
X0019044Y0028888D01*
X0024075Y0023857D01*
X0024075Y0021400D01*
X0024953Y0020522D01*
X0031708Y0020522D01*
X0032059Y0020873D01*
X0032471Y0020461D01*
X0033463Y0020050D01*
X0034579Y0020050D01*
X0034100Y0019571D01*
X0034100Y0015929D01*
X0034779Y0015250D01*
X0034100Y0014571D01*
X0034100Y0014000D01*
X0032494Y0014000D01*
X0032587Y0014344D01*
X0032587Y0016026D01*
X0028815Y0016026D01*
X0028815Y0016994D01*
X0032587Y0016994D01*
X0032587Y0018676D01*
X0032484Y0019057D01*
X0032287Y0019399D01*
X0032008Y0019679D01*
X0031666Y0019876D01*
X0031284Y0019978D01*
X0028815Y0019978D01*
X0028815Y0016994D01*
X0027846Y0016994D01*
X0027846Y0016026D01*
X0024075Y0016026D01*
X0024075Y0014344D01*
X0024167Y0014000D01*
X0019068Y0014000D01*
X0021850Y0016781D01*
X0023047Y0016781D01*
X0023925Y0017660D01*
X0023925Y0022840D01*
X0023047Y0023718D01*
X0016292Y0023718D01*
X0015413Y0022840D01*
X0015413Y0017982D01*
X0015382Y0017950D01*
X0013631Y0017950D01*
X0012686Y0018895D01*
X0011105Y0019550D01*
X0005645Y0019550D01*
X0004064Y0018895D01*
X0004000Y0018831D01*
X0004000Y0028984D01*
X0004358Y0028888D01*
X0007598Y0028888D01*
X0007598Y0032250D01*
X0008598Y0032250D01*
X0008598Y0028888D01*
X0011839Y0028888D01*
X0012221Y0028990D01*
X0012563Y0029187D01*
X0012842Y0029467D01*
X0013039Y0029809D01*
X0013142Y0030190D01*
X0013142Y0032250D01*
X0008598Y0032250D01*
X0008598Y0033250D01*
X0007598Y0033250D01*
X0007598Y0036612D01*
X0004358Y0036612D01*
X0004000Y0036516D01*
X0004000Y0071500D01*
X0086500Y0071500D01*
X0086500Y0059200D01*
X0083082Y0059200D01*
X0082117Y0059600D01*
X0080883Y0059600D01*
X0079918Y0059200D01*
X0076829Y0059200D01*
X0075950Y0058321D01*
X0075950Y0054679D01*
X0076629Y0054000D01*
X0075950Y0053321D01*
X0075950Y0049679D01*
X0076629Y0049000D01*
X0075950Y0048321D01*
X0075950Y0044679D01*
X0076629Y0044000D01*
X0075950Y0043321D01*
X0075950Y0039679D01*
X0076829Y0038800D01*
X0079918Y0038800D01*
X0080883Y0038400D01*
X0082117Y0038400D01*
X0083082Y0038800D01*
X0086500Y0038800D01*
X0086500Y0027750D01*
X0087750Y0026500D01*
X0099000Y0026500D01*
X0099000Y0015686D01*
X0098979Y0015698D01*
X0098597Y0015800D01*
X0095750Y0015800D01*
X0095750Y0014000D01*
X0094750Y0014000D01*
X0094750Y0015800D01*
X0091903Y0015800D01*
X0091521Y0015698D01*
X0091179Y0015500D01*
X0090900Y0015221D01*
X0090702Y0014879D01*
X0090600Y0014497D01*
X0090600Y0014000D01*
X0083837Y0014000D01*
X0083837Y0014100D01*
X0082958Y0014978D01*
X0076203Y0014978D01*
X0075325Y0014100D01*
X0075325Y0014000D01*
X0075175Y0014000D01*
X0075175Y0017840D01*
X0074297Y0018718D01*
X0069471Y0018718D01*
X0073703Y0022950D01*
X0079953Y0022950D01*
X0080044Y0023041D01*
X0082958Y0023041D01*
X0083837Y0023920D01*
X0083837Y0029100D01*
X0082958Y0029978D01*
X0076203Y0029978D01*
X0075325Y0029100D01*
X0075325Y0027550D01*
X0075065Y0027550D01*
X0075175Y0027660D01*
X0075175Y0032840D01*
X0074297Y0033718D01*
X0070034Y0033718D01*
X0069068Y0034685D01*
X0069597Y0034466D01*
X0070903Y0034466D01*
X0072110Y0034966D01*
X0073034Y0035890D01*
X0073534Y0037097D01*
X0073534Y0038403D01*
X0073034Y0039610D01*
X0072550Y0040095D01*
X0072550Y0060138D01*
X0076566Y0060138D01*
X0077445Y0061016D01*
X0077445Y0066984D01*
X0076566Y0067862D01*
X0068237Y0067862D01*
X0067358Y0066984D01*
X0067358Y0061016D01*
X0067950Y0060425D01*
X0067950Y0053800D01*
X0066571Y0053800D01*
X0066345Y0054027D01*
X0066471Y0054100D01*
X0066750Y0054379D01*
X0066948Y0054721D01*
X0067050Y0055103D01*
X0067050Y0056400D01*
X0061300Y0056400D01*
X0061300Y0056600D01*
X0061100Y0056600D01*
X0061100Y0059200D01*
X0056653Y0059200D01*
X0056271Y0059098D01*
X0055929Y0058900D01*
X0055650Y0058621D01*
X0055452Y0058279D01*
X0055350Y0057897D01*
X0055350Y0056600D01*
X0061100Y0056600D01*
X0061100Y0056400D01*
X0055350Y0056400D01*
X0055350Y0055103D01*
X0055452Y0054721D01*
X0055650Y0054379D01*
X0055929Y0054100D01*
X0056055Y0054027D01*
X0055350Y0053321D01*
X0055350Y0049679D01*
X0055919Y0049109D01*
X0055716Y0048906D01*
X0055716Y0048687D01*
X0055350Y0048321D01*
X0055350Y0044679D01*
X0055716Y0044313D01*
X0055716Y0044094D01*
X0055919Y0043891D01*
X0055350Y0043321D01*
X0055350Y0039679D01*
X0056229Y0038800D01*
X0059200Y0038800D01*
X0059200Y0036612D01*
X0058237Y0036612D01*
X0057358Y0035734D01*
X0057358Y0029766D01*
X0058237Y0028888D01*
X0066566Y0028888D01*
X0066663Y0028985D01*
X0066663Y0027660D01*
X0067542Y0026781D01*
X0071029Y0026781D01*
X0070450Y0026203D01*
X0066400Y0022153D01*
X0066400Y0022650D01*
X0060650Y0022650D01*
X0060650Y0022850D01*
X0060450Y0022850D01*
X0060450Y0025450D01*
X0056003Y0025450D01*
X0055621Y0025348D01*
X0055279Y0025150D01*
X0055000Y0024871D01*
X0054802Y0024529D01*
X0054700Y0024147D01*
X0054700Y0022850D01*
X0060450Y0022850D01*
X0060450Y0022650D01*
X0054700Y0022650D01*
X0054700Y0021353D01*
X0054802Y0020971D01*
X0055000Y0020629D01*
X0055279Y0020350D01*
X0055405Y0020277D01*
X0054700Y0019571D01*
X0054700Y0015929D01*
X0055379Y0015250D01*
X0054700Y0014571D01*
X0054700Y0014000D01*
X0050787Y0014000D01*
X0050534Y0014610D01*
X0049610Y0015534D01*
X0048403Y0016034D01*
X0047097Y0016034D01*
X0046568Y0015815D01*
X0047550Y0016797D01*
X0050050Y0019297D01*
X0050050Y0024953D01*
X0048703Y0026300D01*
X0046203Y0028800D01*
X0043240Y0028800D01*
X0043328Y0028888D01*
X0045316Y0028888D01*
X0045875Y0029447D01*
X0046434Y0028888D01*
X0048422Y0028888D01*
X0049094Y0028216D01*
X0053906Y0028216D01*
X0054578Y0028888D01*
X0054763Y0028888D01*
X0055642Y0029766D01*
X0055642Y0035734D01*
X0054763Y0036612D01*
X0046434Y0036612D01*
X0045875Y0036053D01*
X0045316Y0036612D01*
X0037550Y0036612D01*
X0037550Y0038047D01*
X0040050Y0040547D01*
X0040050Y0060138D01*
X0043513Y0060138D01*
X0044392Y0061016D01*
X0044392Y0066984D01*
X0043513Y0067862D01*
X0035184Y0067862D01*
X0034305Y0066984D01*
X0034305Y0061016D01*
X0035184Y0060138D01*
X0035450Y0060138D01*
X0035450Y0053800D01*
X0032821Y0053800D01*
X0032595Y0054027D01*
X0032721Y0054100D01*
X0033000Y0054379D01*
X0033198Y0054721D01*
X0033300Y0055103D01*
X0033300Y0056400D01*
X0027550Y0056400D01*
X0027550Y0056600D01*
X0027350Y0056600D01*
X0027350Y0059200D01*
X0022903Y0059200D01*
X0022521Y0059098D01*
X0022179Y0058900D01*
X0021900Y0058621D01*
X0021702Y0058279D01*
X0021600Y0057897D01*
X0021600Y0056600D01*
X0027350Y0056600D01*
X0027350Y0056400D01*
X0021600Y0056400D01*
X0021600Y0055103D01*
X0021702Y0054721D01*
X0021900Y0054379D01*
X0022179Y0054100D01*
X0021730Y0054673D02*
X0019171Y0054673D01*
X0019171Y0055671D02*
X0021600Y0055671D01*
X0021600Y0056670D02*
X0019171Y0056670D01*
X0019171Y0057668D02*
X0021600Y0057668D01*
X0021945Y0058667D02*
X0018984Y0058667D01*
X0014535Y0062985D02*
X0013657Y0062106D01*
X0005446Y0062106D01*
X0004567Y0062985D01*
X0004567Y0070015D01*
X0005446Y0070894D01*
X0013657Y0070894D01*
X0014535Y0070015D01*
X0014535Y0062985D01*
X0014211Y0062661D02*
X0023789Y0062661D01*
X0023465Y0062985D02*
X0024343Y0062106D01*
X0032554Y0062106D01*
X0033433Y0062985D01*
X0033433Y0070015D01*
X0032554Y0070894D01*
X0024343Y0070894D01*
X0023465Y0070015D01*
X0023465Y0062985D01*
X0023465Y0063659D02*
X0014535Y0063659D01*
X0014535Y0064658D02*
X0023465Y0064658D01*
X0023465Y0065656D02*
X0014535Y0065656D01*
X0014535Y0066655D02*
X0023465Y0066655D01*
X0023465Y0067653D02*
X0014535Y0067653D01*
X0014535Y0068652D02*
X0023465Y0068652D01*
X0023465Y0069650D02*
X0014535Y0069650D01*
X0013902Y0070649D02*
X0024098Y0070649D01*
X0032799Y0070649D02*
X0086500Y0070649D01*
X0086500Y0069650D02*
X0033433Y0069650D01*
X0033433Y0068652D02*
X0086500Y0068652D01*
X0086500Y0067653D02*
X0076775Y0067653D01*
X0077445Y0066655D02*
X0086500Y0066655D01*
X0086500Y0065656D02*
X0077445Y0065656D01*
X0077445Y0064658D02*
X0086500Y0064658D01*
X0086500Y0063659D02*
X0077445Y0063659D01*
X0077445Y0062661D02*
X0086500Y0062661D01*
X0086500Y0061662D02*
X0077445Y0061662D01*
X0077092Y0060664D02*
X0086500Y0060664D01*
X0086500Y0059665D02*
X0072550Y0059665D01*
X0072550Y0058667D02*
X0076295Y0058667D01*
X0075950Y0057668D02*
X0072550Y0057668D01*
X0072550Y0056670D02*
X0075950Y0056670D01*
X0075950Y0055671D02*
X0072550Y0055671D01*
X0072550Y0054673D02*
X0075956Y0054673D01*
X0076303Y0053674D02*
X0072550Y0053674D01*
X0072550Y0052676D02*
X0075950Y0052676D01*
X0075950Y0051677D02*
X0072550Y0051677D01*
X0072550Y0050679D02*
X0075950Y0050679D01*
X0075950Y0049680D02*
X0072550Y0049680D01*
X0072550Y0048682D02*
X0076310Y0048682D01*
X0075950Y0047683D02*
X0072550Y0047683D01*
X0072550Y0046684D02*
X0075950Y0046684D01*
X0075950Y0045686D02*
X0072550Y0045686D01*
X0072550Y0044687D02*
X0075950Y0044687D01*
X0076318Y0043689D02*
X0072550Y0043689D01*
X0072550Y0042690D02*
X0075950Y0042690D01*
X0075950Y0041692D02*
X0072550Y0041692D01*
X0072550Y0040693D02*
X0075950Y0040693D01*
X0075950Y0039695D02*
X0072950Y0039695D01*
X0073413Y0038696D02*
X0080168Y0038696D01*
X0080065Y0037459D02*
X0080065Y0034474D01*
X0083837Y0034474D01*
X0083837Y0036156D01*
X0083734Y0036538D01*
X0083537Y0036880D01*
X0083258Y0037159D01*
X0082916Y0037356D01*
X0082534Y0037459D01*
X0080065Y0037459D01*
X0080065Y0036699D02*
X0079096Y0036699D01*
X0079096Y0037459D02*
X0076627Y0037459D01*
X0076246Y0037356D01*
X0075904Y0037159D01*
X0075625Y0036880D01*
X0075427Y0036538D01*
X0075325Y0036156D01*
X0075325Y0034474D01*
X0079096Y0034474D01*
X0079096Y0033506D01*
X0075325Y0033506D01*
X0075325Y0031824D01*
X0075427Y0031443D01*
X0075625Y0031101D01*
X0075904Y0030821D01*
X0076246Y0030624D01*
X0076627Y0030522D01*
X0079096Y0030522D01*
X0079096Y0033506D01*
X0080065Y0033506D01*
X0080065Y0034474D01*
X0079096Y0034474D01*
X0079096Y0037459D01*
X0079096Y0035701D02*
X0080065Y0035701D01*
X0080065Y0034702D02*
X0079096Y0034702D01*
X0079096Y0033704D02*
X0074311Y0033704D01*
X0075175Y0032705D02*
X0075325Y0032705D01*
X0075356Y0031707D02*
X0075175Y0031707D01*
X0075175Y0030708D02*
X0076100Y0030708D01*
X0075935Y0029710D02*
X0075175Y0029710D01*
X0075175Y0028711D02*
X0075325Y0028711D01*
X0075325Y0027713D02*
X0075175Y0027713D01*
X0070962Y0026714D02*
X0048288Y0026714D01*
X0047290Y0027713D02*
X0066663Y0027713D01*
X0066663Y0028711D02*
X0054401Y0028711D01*
X0055585Y0029710D02*
X0057415Y0029710D01*
X0057358Y0030708D02*
X0055642Y0030708D01*
X0055642Y0031707D02*
X0057358Y0031707D01*
X0057358Y0032705D02*
X0055642Y0032705D01*
X0055642Y0033704D02*
X0057358Y0033704D01*
X0057358Y0034702D02*
X0055642Y0034702D01*
X0055642Y0035701D02*
X0057358Y0035701D01*
X0059200Y0036699D02*
X0037550Y0036699D01*
X0037550Y0037698D02*
X0059200Y0037698D01*
X0059200Y0038696D02*
X0049386Y0038696D01*
X0049490Y0038800D02*
X0048906Y0038216D01*
X0044094Y0038216D01*
X0043510Y0038800D01*
X0043079Y0038800D01*
X0042200Y0039679D01*
X0042200Y0043321D01*
X0042879Y0044000D01*
X0042200Y0044679D01*
X0042200Y0048321D01*
X0042879Y0049000D01*
X0042200Y0049679D01*
X0042200Y0053321D01*
X0042879Y0054000D01*
X0042200Y0054679D01*
X0042200Y0058321D01*
X0043079Y0059200D01*
X0053021Y0059200D01*
X0053900Y0058321D01*
X0053900Y0054679D01*
X0053221Y0054000D01*
X0053900Y0053321D01*
X0053900Y0049679D01*
X0053221Y0049000D01*
X0053900Y0048321D01*
X0053900Y0044679D01*
X0053221Y0044000D01*
X0053900Y0043321D01*
X0053900Y0039679D01*
X0053021Y0038800D01*
X0049490Y0038800D01*
X0053900Y0039695D02*
X0055350Y0039695D01*
X0055350Y0040693D02*
X0053900Y0040693D01*
X0053900Y0041692D02*
X0055350Y0041692D01*
X0055350Y0042690D02*
X0053900Y0042690D01*
X0053532Y0043689D02*
X0055718Y0043689D01*
X0055350Y0044687D02*
X0053900Y0044687D01*
X0053900Y0045686D02*
X0055350Y0045686D01*
X0055350Y0046684D02*
X0053900Y0046684D01*
X0053900Y0047683D02*
X0055350Y0047683D01*
X0055710Y0048682D02*
X0053540Y0048682D01*
X0053900Y0049680D02*
X0055350Y0049680D01*
X0055350Y0050679D02*
X0053900Y0050679D01*
X0053900Y0051677D02*
X0055350Y0051677D01*
X0055350Y0052676D02*
X0053900Y0052676D01*
X0053547Y0053674D02*
X0055703Y0053674D01*
X0055480Y0054673D02*
X0053894Y0054673D01*
X0053900Y0055671D02*
X0055350Y0055671D01*
X0055350Y0056670D02*
X0053900Y0056670D01*
X0053900Y0057668D02*
X0055350Y0057668D01*
X0055695Y0058667D02*
X0053555Y0058667D01*
X0054892Y0060138D02*
X0051652Y0060138D01*
X0051652Y0063500D01*
X0051652Y0064500D01*
X0056195Y0064500D01*
X0060098Y0064500D01*
X0060098Y0063500D01*
X0051652Y0063500D01*
X0050652Y0063500D01*
X0050652Y0060138D01*
X0047411Y0060138D01*
X0047029Y0060240D01*
X0046687Y0060437D01*
X0046408Y0060717D01*
X0046210Y0061059D01*
X0046108Y0061440D01*
X0046108Y0063500D01*
X0050652Y0063500D01*
X0050652Y0064500D01*
X0050652Y0067862D01*
X0047411Y0067862D01*
X0047029Y0067760D01*
X0046687Y0067562D01*
X0046408Y0067283D01*
X0046210Y0066941D01*
X0046108Y0066560D01*
X0046108Y0064500D01*
X0050652Y0064500D01*
X0051652Y0064500D01*
X0051652Y0067862D01*
X0054892Y0067862D01*
X0055274Y0067760D01*
X0055616Y0067562D01*
X0055875Y0067303D01*
X0056134Y0067562D01*
X0056476Y0067760D01*
X0056858Y0067862D01*
X0060098Y0067862D01*
X0060098Y0064500D01*
X0061098Y0064500D01*
X0061098Y0067862D01*
X0064339Y0067862D01*
X0064721Y0067760D01*
X0065063Y0067562D01*
X0065342Y0067283D01*
X0065539Y0066941D01*
X0065642Y0066560D01*
X0065642Y0064500D01*
X0061098Y0064500D01*
X0061098Y0063500D01*
X0061098Y0060138D01*
X0064339Y0060138D01*
X0064721Y0060240D01*
X0065063Y0060437D01*
X0065342Y0060717D01*
X0065539Y0061059D01*
X0065642Y0061440D01*
X0065642Y0063500D01*
X0061098Y0063500D01*
X0060098Y0063500D01*
X0060098Y0060138D01*
X0056858Y0060138D01*
X0056476Y0060240D01*
X0056134Y0060437D01*
X0055875Y0060697D01*
X0055616Y0060437D01*
X0055274Y0060240D01*
X0054892Y0060138D01*
X0055842Y0060664D02*
X0055908Y0060664D01*
X0060098Y0060664D02*
X0061098Y0060664D01*
X0061098Y0061662D02*
X0060098Y0061662D01*
X0060098Y0062661D02*
X0061098Y0062661D01*
X0061098Y0063659D02*
X0067358Y0063659D01*
X0067358Y0064658D02*
X0065642Y0064658D01*
X0065642Y0065656D02*
X0067358Y0065656D01*
X0067358Y0066655D02*
X0065616Y0066655D01*
X0064906Y0067653D02*
X0068028Y0067653D01*
X0067358Y0062661D02*
X0065642Y0062661D01*
X0065642Y0061662D02*
X0067358Y0061662D01*
X0067711Y0060664D02*
X0065289Y0060664D01*
X0065747Y0059200D02*
X0061300Y0059200D01*
X0061300Y0056600D01*
X0067050Y0056600D01*
X0067050Y0057897D01*
X0066948Y0058279D01*
X0066750Y0058621D01*
X0066471Y0058900D01*
X0066129Y0059098D01*
X0065747Y0059200D01*
X0066705Y0058667D02*
X0067950Y0058667D01*
X0067950Y0059665D02*
X0040050Y0059665D01*
X0040050Y0058667D02*
X0042545Y0058667D01*
X0042200Y0057668D02*
X0040050Y0057668D01*
X0040050Y0056670D02*
X0042200Y0056670D01*
X0042200Y0055671D02*
X0040050Y0055671D01*
X0040050Y0054673D02*
X0042206Y0054673D01*
X0042553Y0053674D02*
X0040050Y0053674D01*
X0040050Y0052676D02*
X0042200Y0052676D01*
X0042200Y0051677D02*
X0040050Y0051677D01*
X0040050Y0050679D02*
X0042200Y0050679D01*
X0042200Y0049680D02*
X0040050Y0049680D01*
X0040050Y0048682D02*
X0042560Y0048682D01*
X0042200Y0047683D02*
X0040050Y0047683D01*
X0040050Y0046684D02*
X0042200Y0046684D01*
X0042200Y0045686D02*
X0040050Y0045686D01*
X0040050Y0044687D02*
X0042200Y0044687D01*
X0042568Y0043689D02*
X0040050Y0043689D01*
X0040050Y0042690D02*
X0042200Y0042690D01*
X0042200Y0041692D02*
X0040050Y0041692D01*
X0040050Y0040693D02*
X0042200Y0040693D01*
X0042200Y0039695D02*
X0039198Y0039695D01*
X0038199Y0038696D02*
X0043614Y0038696D01*
X0046291Y0028711D02*
X0048599Y0028711D01*
X0049287Y0025716D02*
X0069963Y0025716D01*
X0068965Y0024717D02*
X0066189Y0024717D01*
X0066100Y0024871D02*
X0065821Y0025150D01*
X0065479Y0025348D01*
X0065097Y0025450D01*
X0060650Y0025450D01*
X0060650Y0022850D01*
X0066400Y0022850D01*
X0066400Y0024147D01*
X0066298Y0024529D01*
X0066100Y0024871D01*
X0066400Y0023719D02*
X0067966Y0023719D01*
X0066968Y0022720D02*
X0060650Y0022720D01*
X0060450Y0022720D02*
X0050050Y0022720D01*
X0050050Y0021722D02*
X0054700Y0021722D01*
X0054945Y0020723D02*
X0050050Y0020723D01*
X0050050Y0019725D02*
X0054853Y0019725D01*
X0054700Y0018726D02*
X0049479Y0018726D01*
X0048480Y0017728D02*
X0054700Y0017728D01*
X0054700Y0016729D02*
X0047482Y0016729D01*
X0049136Y0015731D02*
X0054898Y0015731D01*
X0054861Y0014732D02*
X0050412Y0014732D01*
X0050050Y0023719D02*
X0054700Y0023719D01*
X0054911Y0024717D02*
X0050050Y0024717D01*
X0060450Y0024717D02*
X0060650Y0024717D01*
X0060650Y0023719D02*
X0060450Y0023719D01*
X0069479Y0018726D02*
X0079096Y0018726D01*
X0079096Y0018506D02*
X0075325Y0018506D01*
X0075325Y0016824D01*
X0075427Y0016443D01*
X0075625Y0016101D01*
X0075904Y0015821D01*
X0076246Y0015624D01*
X0076627Y0015522D01*
X0079096Y0015522D01*
X0079096Y0018506D01*
X0079096Y0019474D01*
X0075325Y0019474D01*
X0075325Y0021156D01*
X0075427Y0021538D01*
X0075625Y0021880D01*
X0075904Y0022159D01*
X0076246Y0022356D01*
X0076627Y0022459D01*
X0079096Y0022459D01*
X0079096Y0019474D01*
X0080065Y0019474D01*
X0083837Y0019474D01*
X0083837Y0021156D01*
X0083734Y0021538D01*
X0083537Y0021880D01*
X0083258Y0022159D01*
X0082916Y0022356D01*
X0082534Y0022459D01*
X0080065Y0022459D01*
X0080065Y0019474D01*
X0080065Y0018506D01*
X0083837Y0018506D01*
X0083837Y0016824D01*
X0083734Y0016443D01*
X0083537Y0016101D01*
X0083258Y0015821D01*
X0082916Y0015624D01*
X0082534Y0015522D01*
X0080065Y0015522D01*
X0080065Y0018506D01*
X0079096Y0018506D01*
X0079096Y0017728D02*
X0080065Y0017728D01*
X0080065Y0018726D02*
X0099000Y0018726D01*
X0099000Y0017728D02*
X0083837Y0017728D01*
X0083811Y0016729D02*
X0099000Y0016729D01*
X0099000Y0015731D02*
X0098856Y0015731D01*
X0095750Y0015731D02*
X0094750Y0015731D01*
X0094750Y0014732D02*
X0095750Y0014732D01*
X0091644Y0015731D02*
X0083101Y0015731D01*
X0083204Y0014732D02*
X0090663Y0014732D01*
X0083837Y0019725D02*
X0099000Y0019725D01*
X0099000Y0020723D02*
X0083837Y0020723D01*
X0083628Y0021722D02*
X0099000Y0021722D01*
X0099000Y0022720D02*
X0073473Y0022720D01*
X0072474Y0021722D02*
X0075533Y0021722D01*
X0075325Y0020723D02*
X0071476Y0020723D01*
X0070477Y0019725D02*
X0075325Y0019725D01*
X0075325Y0017728D02*
X0075175Y0017728D01*
X0075175Y0016729D02*
X0075350Y0016729D01*
X0075175Y0015731D02*
X0076061Y0015731D01*
X0075957Y0014732D02*
X0075175Y0014732D01*
X0079096Y0015731D02*
X0080065Y0015731D01*
X0080065Y0016729D02*
X0079096Y0016729D01*
X0079096Y0019725D02*
X0080065Y0019725D01*
X0080065Y0020723D02*
X0079096Y0020723D01*
X0079096Y0021722D02*
X0080065Y0021722D01*
X0083635Y0023719D02*
X0099000Y0023719D01*
X0099000Y0024717D02*
X0083837Y0024717D01*
X0083837Y0025716D02*
X0099000Y0025716D01*
X0099000Y0031500D02*
X0090250Y0031500D01*
X0090250Y0041500D01*
X0099000Y0041500D01*
X0099000Y0031500D01*
X0099000Y0031707D02*
X0090250Y0031707D01*
X0090250Y0032705D02*
X0099000Y0032705D01*
X0099000Y0033704D02*
X0090250Y0033704D01*
X0090250Y0034702D02*
X0099000Y0034702D01*
X0099000Y0035701D02*
X0090250Y0035701D01*
X0090250Y0036699D02*
X0099000Y0036699D01*
X0099000Y0037698D02*
X0090250Y0037698D01*
X0090250Y0038696D02*
X0099000Y0038696D01*
X0099000Y0039695D02*
X0090250Y0039695D01*
X0090250Y0040693D02*
X0099000Y0040693D01*
X0099000Y0046500D02*
X0085250Y0046500D01*
X0085250Y0046400D01*
X0081900Y0046400D01*
X0081900Y0046600D01*
X0081700Y0046600D01*
X0081700Y0051400D01*
X0081900Y0051400D01*
X0081900Y0051600D01*
X0081900Y0053800D01*
X0081900Y0056400D01*
X0081900Y0056500D01*
X0099000Y0056500D01*
X0099000Y0046500D01*
X0099000Y0046684D02*
X0087650Y0046684D01*
X0087650Y0046600D02*
X0087650Y0047897D01*
X0087548Y0048279D01*
X0087350Y0048621D01*
X0087071Y0048900D01*
X0086898Y0049000D01*
X0087071Y0049100D01*
X0087350Y0049379D01*
X0087548Y0049721D01*
X0087650Y0050103D01*
X0087650Y0051400D01*
X0081900Y0051400D01*
X0081900Y0048800D01*
X0081900Y0046600D01*
X0087650Y0046600D01*
X0087650Y0047683D02*
X0099000Y0047683D01*
X0099000Y0048682D02*
X0087290Y0048682D01*
X0087524Y0049680D02*
X0099000Y0049680D01*
X0099000Y0050679D02*
X0087650Y0050679D01*
X0087650Y0051600D02*
X0087650Y0052897D01*
X0087548Y0053279D01*
X0087350Y0053621D01*
X0087071Y0053900D01*
X0086898Y0054000D01*
X0087071Y0054100D01*
X0087350Y0054379D01*
X0087548Y0054721D01*
X0087650Y0055103D01*
X0087650Y0056400D01*
X0081900Y0056400D01*
X0081700Y0056400D01*
X0081700Y0051600D01*
X0081900Y0051600D01*
X0087650Y0051600D01*
X0087650Y0051677D02*
X0099000Y0051677D01*
X0099000Y0052676D02*
X0087650Y0052676D01*
X0087297Y0053674D02*
X0099000Y0053674D01*
X0099000Y0054673D02*
X0087520Y0054673D01*
X0087650Y0055671D02*
X0099000Y0055671D01*
X0099000Y0061500D02*
X0090250Y0061500D01*
X0090250Y0071500D01*
X0099000Y0071500D01*
X0099000Y0061500D01*
X0099000Y0061662D02*
X0090250Y0061662D01*
X0090250Y0062661D02*
X0099000Y0062661D01*
X0099000Y0063659D02*
X0090250Y0063659D01*
X0090250Y0064658D02*
X0099000Y0064658D01*
X0099000Y0065656D02*
X0090250Y0065656D01*
X0090250Y0066655D02*
X0099000Y0066655D01*
X0099000Y0067653D02*
X0090250Y0067653D01*
X0090250Y0068652D02*
X0099000Y0068652D01*
X0099000Y0069650D02*
X0090250Y0069650D01*
X0090250Y0070649D02*
X0099000Y0070649D01*
X0081700Y0056500D02*
X0081700Y0056400D01*
X0077750Y0056400D01*
X0077750Y0056500D01*
X0081700Y0056500D01*
X0081700Y0055671D02*
X0081900Y0055671D01*
X0081900Y0054673D02*
X0081700Y0054673D01*
X0081700Y0053674D02*
X0081900Y0053674D01*
X0081900Y0052676D02*
X0081700Y0052676D01*
X0081700Y0051677D02*
X0081900Y0051677D01*
X0081900Y0050679D02*
X0081700Y0050679D01*
X0081700Y0049680D02*
X0081900Y0049680D01*
X0081900Y0048682D02*
X0081700Y0048682D01*
X0081700Y0047683D02*
X0081900Y0047683D01*
X0081900Y0046684D02*
X0081700Y0046684D01*
X0081700Y0046400D02*
X0081900Y0046400D01*
X0081900Y0043800D01*
X0081900Y0041600D01*
X0081700Y0041600D01*
X0081700Y0046400D01*
X0081700Y0045686D02*
X0081900Y0045686D01*
X0081900Y0044687D02*
X0081700Y0044687D01*
X0081700Y0043689D02*
X0081900Y0043689D01*
X0081900Y0042690D02*
X0081700Y0042690D01*
X0081700Y0041692D02*
X0081900Y0041692D01*
X0081700Y0041600D02*
X0081700Y0041400D01*
X0077750Y0041400D01*
X0077750Y0041600D01*
X0081700Y0041600D01*
X0082832Y0038696D02*
X0086500Y0038696D01*
X0086500Y0037698D02*
X0073534Y0037698D01*
X0073370Y0036699D02*
X0075520Y0036699D01*
X0075325Y0035701D02*
X0072845Y0035701D01*
X0071474Y0034702D02*
X0075325Y0034702D01*
X0079096Y0032705D02*
X0080065Y0032705D01*
X0080065Y0033506D02*
X0080065Y0030522D01*
X0082534Y0030522D01*
X0082916Y0030624D01*
X0083258Y0030821D01*
X0083537Y0031101D01*
X0083734Y0031443D01*
X0083837Y0031824D01*
X0083837Y0033506D01*
X0080065Y0033506D01*
X0080065Y0033704D02*
X0086500Y0033704D01*
X0086500Y0034702D02*
X0083837Y0034702D01*
X0083837Y0035701D02*
X0086500Y0035701D01*
X0086500Y0036699D02*
X0083641Y0036699D01*
X0083837Y0032705D02*
X0086500Y0032705D01*
X0086500Y0031707D02*
X0083805Y0031707D01*
X0083062Y0030708D02*
X0086500Y0030708D01*
X0086500Y0029710D02*
X0083226Y0029710D01*
X0083837Y0028711D02*
X0086500Y0028711D01*
X0086537Y0027713D02*
X0083837Y0027713D01*
X0083837Y0026714D02*
X0087536Y0026714D01*
X0080065Y0030708D02*
X0079096Y0030708D01*
X0079096Y0031707D02*
X0080065Y0031707D01*
X0067950Y0054673D02*
X0066920Y0054673D01*
X0067050Y0055671D02*
X0067950Y0055671D01*
X0067950Y0056670D02*
X0067050Y0056670D01*
X0067050Y0057668D02*
X0067950Y0057668D01*
X0061300Y0057668D02*
X0061100Y0057668D01*
X0061100Y0058667D02*
X0061300Y0058667D01*
X0061300Y0056670D02*
X0061100Y0056670D01*
X0051652Y0060664D02*
X0050652Y0060664D01*
X0050652Y0061662D02*
X0051652Y0061662D01*
X0051652Y0062661D02*
X0050652Y0062661D01*
X0050652Y0063659D02*
X0044392Y0063659D01*
X0044392Y0064658D02*
X0046108Y0064658D01*
X0046108Y0065656D02*
X0044392Y0065656D01*
X0044392Y0066655D02*
X0046134Y0066655D01*
X0046844Y0067653D02*
X0043722Y0067653D01*
X0044392Y0062661D02*
X0046108Y0062661D01*
X0046108Y0061662D02*
X0044392Y0061662D01*
X0044039Y0060664D02*
X0046461Y0060664D01*
X0050652Y0064658D02*
X0051652Y0064658D01*
X0051652Y0065656D02*
X0050652Y0065656D01*
X0050652Y0066655D02*
X0051652Y0066655D01*
X0051652Y0067653D02*
X0050652Y0067653D01*
X0055459Y0067653D02*
X0056291Y0067653D01*
X0060098Y0067653D02*
X0061098Y0067653D01*
X0061098Y0066655D02*
X0060098Y0066655D01*
X0060098Y0065656D02*
X0061098Y0065656D01*
X0061098Y0064658D02*
X0060098Y0064658D01*
X0060098Y0063659D02*
X0051652Y0063659D01*
X0035450Y0059665D02*
X0004000Y0059665D01*
X0004000Y0058667D02*
X0006516Y0058667D01*
X0006329Y0057668D02*
X0004000Y0057668D01*
X0004000Y0056670D02*
X0006329Y0056670D01*
X0006329Y0055671D02*
X0004000Y0055671D01*
X0004000Y0054673D02*
X0006329Y0054673D01*
X0006329Y0053674D02*
X0004000Y0053674D01*
X0004000Y0052676D02*
X0006329Y0052676D01*
X0007164Y0051677D02*
X0004000Y0051677D01*
X0004000Y0050679D02*
X0021600Y0050679D01*
X0021600Y0049680D02*
X0004000Y0049680D01*
X0004000Y0048682D02*
X0021960Y0048682D01*
X0021600Y0047683D02*
X0004000Y0047683D01*
X0004000Y0046684D02*
X0021600Y0046684D01*
X0021600Y0045686D02*
X0018930Y0045686D01*
X0018872Y0045787D02*
X0018592Y0046066D01*
X0018250Y0046264D01*
X0017869Y0046366D01*
X0013250Y0046366D01*
X0013250Y0043004D01*
X0012250Y0043004D01*
X0012250Y0046366D01*
X0007631Y0046366D01*
X0007250Y0046264D01*
X0006908Y0046066D01*
X0006628Y0045787D01*
X0006431Y0045445D01*
X0006329Y0045064D01*
X0006329Y0043004D01*
X0012250Y0043004D01*
X0012250Y0042004D01*
X0006329Y0042004D01*
X0006329Y0039944D01*
X0006431Y0039563D01*
X0006628Y0039221D01*
X0006908Y0038941D01*
X0007250Y0038744D01*
X0007631Y0038642D01*
X0012250Y0038642D01*
X0012250Y0042004D01*
X0013250Y0042004D01*
X0013250Y0043004D01*
X0019171Y0043004D01*
X0019171Y0045064D01*
X0019069Y0045445D01*
X0018872Y0045787D01*
X0019171Y0044687D02*
X0021600Y0044687D01*
X0021968Y0043689D02*
X0019171Y0043689D01*
X0019171Y0042004D02*
X0013250Y0042004D01*
X0013250Y0038642D01*
X0017869Y0038642D01*
X0018250Y0038744D01*
X0018592Y0038941D01*
X0018872Y0039221D01*
X0019069Y0039563D01*
X0019171Y0039944D01*
X0019171Y0042004D01*
X0019171Y0041692D02*
X0021600Y0041692D01*
X0021600Y0042690D02*
X0013250Y0042690D01*
X0013250Y0041692D02*
X0012250Y0041692D01*
X0012250Y0042690D02*
X0004000Y0042690D01*
X0004000Y0041692D02*
X0006329Y0041692D01*
X0006329Y0040693D02*
X0004000Y0040693D01*
X0004000Y0039695D02*
X0006396Y0039695D01*
X0007427Y0038696D02*
X0004000Y0038696D01*
X0004000Y0037698D02*
X0026700Y0037698D01*
X0026700Y0036699D02*
X0004000Y0036699D01*
X0007598Y0035701D02*
X0008598Y0035701D01*
X0008598Y0036612D02*
X0008598Y0033250D01*
X0013142Y0033250D01*
X0013142Y0035310D01*
X0013039Y0035691D01*
X0012842Y0036033D01*
X0012563Y0036312D01*
X0012221Y0036510D01*
X0011839Y0036612D01*
X0008598Y0036612D01*
X0008598Y0034702D02*
X0007598Y0034702D01*
X0007598Y0033704D02*
X0008598Y0033704D01*
X0008598Y0032705D02*
X0014858Y0032705D01*
X0014858Y0033704D02*
X0013142Y0033704D01*
X0013142Y0034702D02*
X0014858Y0034702D01*
X0014858Y0035701D02*
X0013034Y0035701D01*
X0013250Y0038696D02*
X0012250Y0038696D01*
X0012250Y0039695D02*
X0013250Y0039695D01*
X0013250Y0040693D02*
X0012250Y0040693D01*
X0012250Y0043689D02*
X0013250Y0043689D01*
X0013250Y0044687D02*
X0012250Y0044687D01*
X0012250Y0045686D02*
X0013250Y0045686D01*
X0006570Y0045686D02*
X0004000Y0045686D01*
X0004000Y0044687D02*
X0006329Y0044687D01*
X0006329Y0043689D02*
X0004000Y0043689D01*
X0018073Y0038696D02*
X0026700Y0038696D01*
X0021600Y0039695D02*
X0019104Y0039695D01*
X0019171Y0040693D02*
X0021600Y0040693D01*
X0014858Y0031707D02*
X0013142Y0031707D01*
X0013142Y0030708D02*
X0014858Y0030708D01*
X0014915Y0029710D02*
X0012982Y0029710D01*
X0008598Y0029710D02*
X0007598Y0029710D01*
X0007598Y0030708D02*
X0008598Y0030708D01*
X0008598Y0031707D02*
X0007598Y0031707D01*
X0004000Y0028711D02*
X0019220Y0028711D01*
X0020219Y0027713D02*
X0004000Y0027713D01*
X0004000Y0026714D02*
X0021217Y0026714D01*
X0022216Y0025716D02*
X0004000Y0025716D01*
X0004000Y0024717D02*
X0023214Y0024717D01*
X0024075Y0023719D02*
X0004000Y0023719D01*
X0004000Y0022720D02*
X0015413Y0022720D01*
X0015413Y0021722D02*
X0004000Y0021722D01*
X0004000Y0020723D02*
X0015413Y0020723D01*
X0015413Y0019725D02*
X0004000Y0019725D01*
X0012855Y0018726D02*
X0015413Y0018726D01*
X0019800Y0014732D02*
X0024075Y0014732D01*
X0024075Y0015731D02*
X0020799Y0015731D01*
X0021798Y0016729D02*
X0027846Y0016729D01*
X0027846Y0016994D02*
X0024075Y0016994D01*
X0024075Y0018676D01*
X0024177Y0019057D01*
X0024375Y0019399D01*
X0024654Y0019679D01*
X0024996Y0019876D01*
X0025377Y0019978D01*
X0027846Y0019978D01*
X0027846Y0016994D01*
X0027846Y0017728D02*
X0028815Y0017728D01*
X0028815Y0018726D02*
X0027846Y0018726D01*
X0027846Y0019725D02*
X0028815Y0019725D01*
X0031928Y0019725D02*
X0034253Y0019725D01*
X0034100Y0018726D02*
X0032573Y0018726D01*
X0032587Y0017728D02*
X0034100Y0017728D01*
X0034100Y0016729D02*
X0028815Y0016729D01*
X0032587Y0015731D02*
X0034298Y0015731D01*
X0034261Y0014732D02*
X0032587Y0014732D01*
X0024734Y0019725D02*
X0023925Y0019725D01*
X0023925Y0020723D02*
X0024752Y0020723D01*
X0024075Y0021722D02*
X0023925Y0021722D01*
X0023925Y0022720D02*
X0024075Y0022720D01*
X0024088Y0018726D02*
X0023925Y0018726D01*
X0023925Y0017728D02*
X0024075Y0017728D01*
X0031909Y0020723D02*
X0032208Y0020723D01*
X0033170Y0054673D02*
X0035450Y0054673D01*
X0035450Y0055671D02*
X0033300Y0055671D01*
X0033300Y0056600D02*
X0033300Y0057897D01*
X0033198Y0058279D01*
X0033000Y0058621D01*
X0032721Y0058900D01*
X0032379Y0059098D01*
X0031997Y0059200D01*
X0027550Y0059200D01*
X0027550Y0056600D01*
X0033300Y0056600D01*
X0033300Y0056670D02*
X0035450Y0056670D01*
X0035450Y0057668D02*
X0033300Y0057668D01*
X0032955Y0058667D02*
X0035450Y0058667D01*
X0034658Y0060664D02*
X0004000Y0060664D01*
X0004000Y0061662D02*
X0034305Y0061662D01*
X0034305Y0062661D02*
X0033109Y0062661D01*
X0033433Y0063659D02*
X0034305Y0063659D01*
X0034305Y0064658D02*
X0033433Y0064658D01*
X0033433Y0065656D02*
X0034305Y0065656D01*
X0034305Y0066655D02*
X0033433Y0066655D01*
X0033433Y0067653D02*
X0034975Y0067653D01*
X0027550Y0058667D02*
X0027350Y0058667D01*
X0027350Y0057668D02*
X0027550Y0057668D01*
X0027550Y0056670D02*
X0027350Y0056670D01*
X0005201Y0070649D02*
X0004000Y0070649D01*
X0004000Y0069650D02*
X0004567Y0069650D01*
X0004567Y0068652D02*
X0004000Y0068652D01*
X0004000Y0067653D02*
X0004567Y0067653D01*
X0004567Y0066655D02*
X0004000Y0066655D01*
X0004000Y0065656D02*
X0004567Y0065656D01*
X0004567Y0064658D02*
X0004000Y0064658D01*
X0004000Y0063659D02*
X0004567Y0063659D01*
X0004891Y0062661D02*
X0004000Y0062661D01*
D17*
X0009000Y0066500D03*
X0010250Y0055250D03*
X0015250Y0055250D03*
X0027750Y0046500D03*
X0032750Y0046500D03*
X0046500Y0041500D03*
X0059000Y0046500D03*
X0064000Y0046500D03*
X0046500Y0051500D03*
X0027750Y0066500D03*
X0040250Y0031500D03*
X0051500Y0031500D03*
X0096500Y0034000D03*
X0096500Y0039000D03*
X0096500Y0064000D03*
X0096500Y0069000D03*
D18*
X0081500Y0056500D02*
X0081500Y0041500D01*
X0046500Y0041500D02*
X0046500Y0046500D01*
X0046500Y0051500D01*
X0046500Y0055250D01*
D19*
X0046500Y0051500D02*
X0047750Y0051500D01*
X0047750Y0046500D02*
X0046500Y0046500D01*
X0046500Y0041500D02*
X0047750Y0041500D01*
X0037750Y0041500D02*
X0035250Y0039000D01*
X0035250Y0027750D01*
X0036500Y0026500D01*
X0045250Y0026500D01*
X0047750Y0024000D01*
X0047750Y0020250D01*
X0045250Y0017750D01*
X0039000Y0017750D01*
X0039000Y0012750D02*
X0047750Y0012750D01*
X0039000Y0007750D02*
X0029000Y0007750D01*
X0016500Y0006500D02*
X0010250Y0006500D01*
X0029000Y0032750D02*
X0029000Y0041500D01*
X0037750Y0041500D02*
X0037750Y0051500D01*
X0037750Y0061500D01*
X0040250Y0064000D01*
X0037750Y0051500D02*
X0027750Y0051500D01*
X0061500Y0051500D02*
X0070250Y0051500D01*
X0070250Y0037750D01*
X0067750Y0032750D02*
X0070250Y0030250D01*
X0067750Y0032750D02*
X0061500Y0032750D01*
X0061500Y0041500D01*
X0070250Y0051500D02*
X0070250Y0061500D01*
X0072750Y0064000D01*
X0080250Y0026500D02*
X0079000Y0025250D01*
X0072750Y0025250D01*
X0065250Y0017750D01*
X0059000Y0017750D01*
X0059000Y0012750D02*
X0065250Y0012750D01*
X0067750Y0010250D01*
X0077750Y0010250D01*
X0079000Y0011500D01*
X0064000Y0006500D02*
X0094000Y0006500D01*
X0095250Y0005250D01*
X0064000Y0006500D02*
X0062750Y0007750D01*
X0059000Y0007750D01*
D20*
X0047750Y0012750D03*
X0071500Y0015250D03*
X0070250Y0037750D03*
X0029000Y0032750D03*
X0010250Y0015250D03*
X0006500Y0015250D03*
D21*
X0010250Y0015250D02*
X0016500Y0015250D01*
X0020250Y0019000D01*
X0020250Y0020250D01*
X0027750Y0024000D02*
X0032750Y0024000D01*
X0034000Y0022750D01*
X0040250Y0022750D01*
X0027750Y0024000D02*
X0019902Y0031848D01*
X0019902Y0032750D01*
X0027750Y0046500D02*
X0032750Y0046500D01*
D22*
X0010250Y0006500D02*
X0006500Y0006500D01*
D23*
X0006500Y0015250D02*
X0010250Y0015250D01*
M02*
